<svg width="22" height="39" viewBox="0 0 22 39" fill="none" xmlns="http://www.w3.org/2000/svg">
<path d="M19.3984 0.199998C19.3984 0.199998 19.5984 0.266664 19.9984 0.399995C20.3984 0.533327 20.7984 0.933326 21.1984 1.59999C21.5984 2.13333 21.7984 3.13333 21.7984 4.59999C21.7984 6.73333 21.4651 8.06666 20.7984 8.6C20.1318 9.13333 19.7318 9.4 19.5984 9.4C19.4651 9.4 18.6651 10 17.1984 11.2C15.8651 12.4 14.9984 14.4667 14.5984 17.4C15.7984 17.5333 16.7984 17.8 17.5984 18.2C18.3984 18.6 19.1318 19.1333 19.7984 19.8C20.7318 20.7333 21.2651 21.9333 21.3984 23.4C21.6651 24.8667 21.7984 26.3333 21.7984 27.8C21.7984 29.5333 21.5984 31.2 21.1984 32.8C20.9318 34.4 20.0651 35.7333 18.5984 36.8C17.1318 37.7333 14.6651 38.2 11.1984 38.2C7.19844 38.2 4.39844 37.4 2.79844 35.8C1.73177 34.8667 1.13177 33.6667 0.998438 32.2C0.865104 30.7333 0.798438 29.2 0.798438 27.6C0.798438 26.8 0.798438 26.0667 0.798438 25.4C0.798438 24.7333 0.865104 24 0.998438 23.2C1.39844 19.0667 2.4651 15.2667 4.19844 11.8C5.93177 8.19999 8.06511 5.39999 10.5984 3.39999C13.2651 1.26666 16.1984 0.199998 19.3984 0.199998Z" fill="url(#paint0_linear_1001_4)"/>
<defs>
<linearGradient id="paint0_linear_1001_4" x1="12" y1="10" x2="77.3627" y2="74.819" gradientUnits="userSpaceOnUse">
<stop stop-color="#03DA7D"/>
<stop offset="0.238628" stop-color="#160727" stop-opacity="0"/>
</linearGradient>
</defs>
</svg>
