<svg width="22" height="38" viewBox="0 0 22 38" fill="none" xmlns="http://www.w3.org/2000/svg">
<path d="M2.67734 38C2.67734 38 2.47734 37.9333 2.07734 37.8C1.67734 37.6667 1.27734 37.3333 0.877344 36.8C0.477344 36.1333 0.277344 35.0667 0.277344 33.6C0.277344 31.4667 0.544011 30.1333 1.07734 29.6C1.74401 29.0667 2.21068 28.8 2.47734 28.8C2.47734 28.6667 3.21068 28.0667 4.67734 27C6.14401 25.8 7.01068 23.7333 7.27734 20.8C6.21068 20.6667 5.27734 20.4 4.47734 20C3.67734 19.6 2.94401 19.0667 2.27734 18.4C1.21068 17.4667 0.610677 16.2667 0.477344 14.8C0.344011 13.2 0.277344 11.7333 0.277344 10.4C0.277344 8.66666 0.410677 7 0.677344 5.4C0.944011 3.8 1.81068 2.53333 3.27734 1.59999C4.74401 0.533329 7.27734 -1.90735e-06 10.8773 -1.90735e-06C14.8773 -1.90735e-06 17.6773 0.799996 19.2773 2.39999C20.2107 3.33333 20.744 4.53333 20.8773 5.99999C21.144 7.46666 21.2773 9 21.2773 10.6C21.2773 11.4 21.2773 12.1333 21.2773 12.8C21.2773 13.4667 21.144 14.2 20.8773 15C20.6107 19 19.6107 22.8 17.8773 26.4C16.144 29.8667 13.944 32.6667 11.2773 34.8C8.61068 36.9333 5.74401 38 2.67734 38Z" fill="url(#paint0_linear_1001_41)"/>
<defs>
<linearGradient id="paint0_linear_1001_41" x1="3" y1="-2.5" x2="64.3134" y2="66.6228" gradientUnits="userSpaceOnUse">
<stop stop-color="#160727" stop-opacity="0"/>
<stop offset="0.262851" stop-color="#03DA7D"/>
</linearGradient>
</defs>
</svg>
