<svg width="323" height="553" viewBox="0 0 323 553" fill="none" xmlns="http://www.w3.org/2000/svg">
<path d="M25.9167 177.777L25.5176 190.472L4.00024 178.334L25.9167 177.777Z" fill="url(#paint0_linear_952_2)"/>
<g filter="url(#filter0_d_952_2)">
<path d="M165.496 64.36C167.7 63.5742 170.109 63.5859 172.305 64.3933L302.451 112.24C306.385 113.686 309 117.433 309 121.625V424.859C309 431.936 301.851 436.773 295.282 434.142L30.7518 328.196C26.9573 326.676 24.4697 323 24.4697 318.913L24.47 121.698C24.47 117.47 27.129 113.699 31.1113 112.279L165.496 64.36Z" fill="#545454"/>
</g>
<g filter="url(#filter1_d_952_2)">
<path d="M168.504 196.075L270.343 196.075C275.865 196.075 280.343 200.552 280.343 206.075V528.875C280.343 535.772 273.525 540.599 267.02 538.307L53.6647 463.153C49.6636 461.743 46.9871 457.963 46.9871 453.721L46.9868 206.075C46.9868 200.552 51.464 196.075 56.9868 196.075L168.504 196.075Z" fill="#F5F5F5"/>
</g>
<g filter="url(#filter2_d_952_2)">
<path d="M160.776 3.67196C165.147 1.37325 170.369 1.37324 174.74 3.67195L225.331 30.2786C230.262 32.8717 233.349 37.9837 233.349 43.5546V94.427C233.349 99.9979 230.262 105.11 225.331 107.703L174.74 134.31C170.369 136.608 165.147 136.608 160.776 134.31L110.185 107.703C105.254 105.11 102.167 99.9979 102.167 94.427V43.5546C102.167 37.9837 105.254 32.8717 110.185 30.2786L160.776 3.67196Z" fill="#545454"/>
<path d="M172.878 7.21221L223.469 33.8189C227.085 35.7205 229.349 39.4693 229.349 43.5546V94.427C229.349 98.5123 227.085 102.261 223.469 104.163L172.878 130.769C169.673 132.455 165.843 132.455 162.638 130.769L112.046 104.163C108.431 102.261 106.167 98.5123 106.167 94.427V43.5546C106.167 39.4693 108.431 35.7205 112.046 33.8189L162.638 7.21222C165.843 5.52649 169.673 5.52649 172.878 7.21221Z" stroke="url(#paint1_linear_952_2)" stroke-width="8"/>
</g>
<g filter="url(#filter3_d_952_2)">
<path d="M4 152.853C4 147.33 8.47715 142.853 14 142.853H213.474C223.272 142.853 231.215 150.796 231.215 160.594V160.594C231.215 170.392 223.272 178.334 213.474 178.334H4V152.853Z" fill="url(#paint2_linear_952_2)"/>
</g>
<g filter="url(#filter4_d_952_2)">
<path d="M296.718 481.894H231.669C223.504 481.894 216.886 475.275 216.886 467.11V467.11C216.886 458.945 223.504 452.326 231.669 452.326H289.718C293.584 452.326 296.718 455.46 296.718 459.326V481.894Z" fill="url(#paint3_linear_952_2)"/>
</g>
<g filter="url(#filter5_d_952_2)">
<path d="M80.3242 150.816C80.4309 151.016 80.4909 151.196 80.5042 151.356C80.5309 151.516 80.5442 151.75 80.5442 152.056V163.156C80.5442 164.076 80.2909 164.616 79.7842 164.776C79.5309 164.856 79.2109 164.896 78.8242 164.896C78.4375 164.896 78.1309 164.863 77.9042 164.796C77.6775 164.73 77.5042 164.65 77.3842 164.556C77.2642 164.463 77.1709 164.33 77.1042 164.156C77.0375 163.93 77.0042 163.583 77.0042 163.116V156.416C76.6709 156.83 76.1842 157.49 75.5442 158.396C74.9042 159.29 74.4975 159.85 74.3242 160.076C74.1509 160.303 74.0309 160.463 73.9642 160.556C73.8975 160.636 73.7309 160.756 73.4642 160.916C73.2109 161.063 72.9309 161.136 72.6242 161.136C72.3309 161.136 72.0575 161.07 71.8042 160.936C71.5642 160.79 71.3909 160.65 71.2842 160.516L71.1242 160.296C70.8575 159.963 70.3309 159.256 69.5442 158.176C68.7575 157.083 68.3309 156.496 68.2642 156.416V163.156C68.2642 163.463 68.2509 163.696 68.2242 163.856C68.2109 164.003 68.1509 164.17 68.0442 164.356C67.8442 164.716 67.3242 164.896 66.4842 164.896C65.6709 164.896 65.1642 164.716 64.9642 164.356C64.8575 164.17 64.7909 163.996 64.7642 163.836C64.7509 163.676 64.7442 163.436 64.7442 163.116V152.016C64.7442 151.71 64.7509 151.483 64.7642 151.336C64.7909 151.176 64.8575 150.996 64.9642 150.796C65.1642 150.45 65.6842 150.276 66.5242 150.276C66.8842 150.276 67.1909 150.323 67.4442 150.416C67.7109 150.496 67.8842 150.583 67.9642 150.676L68.0842 150.796L72.6242 156.756C74.8909 153.756 76.4042 151.776 77.1642 150.816C77.3909 150.456 77.9242 150.276 78.7642 150.276C79.6175 150.276 80.1375 150.456 80.3242 150.816ZM92.3066 158.396C92.3066 159.21 92.0999 159.816 91.6866 160.216C91.2866 160.603 90.8399 160.796 90.3466 160.796H85.6066C85.6066 161.17 85.8266 161.483 86.2666 161.736C86.7066 161.99 87.1466 162.116 87.5866 162.116C88.3599 162.116 88.9666 162.036 89.4066 161.876L89.6266 161.796C89.9466 161.65 90.2132 161.576 90.4266 161.576C90.8532 161.576 91.2199 161.876 91.5266 162.476C91.6999 162.836 91.7866 163.143 91.7866 163.396C91.7866 164.583 90.3666 165.176 87.5266 165.176C86.5399 165.176 85.6599 165.01 84.8866 164.676C84.1266 164.33 83.5332 163.876 83.1066 163.316C82.2666 162.236 81.8465 161.03 81.8465 159.696C81.8465 158.016 82.3866 156.676 83.4666 155.676C84.5599 154.663 85.9199 154.156 87.5466 154.156C89.3999 154.156 90.7599 154.81 91.6265 156.116C92.0799 156.81 92.3066 157.57 92.3066 158.396ZM88.0866 158.976C88.5932 158.976 88.8466 158.763 88.8466 158.336C88.8466 158.03 88.7266 157.783 88.4866 157.596C88.2599 157.41 87.9266 157.316 87.4866 157.316C87.0599 157.316 86.6332 157.496 86.2066 157.856C85.7799 158.203 85.5666 158.576 85.5666 158.976H88.0866ZM99.4714 154.376C100.805 154.376 101.911 154.89 102.791 155.916C103.685 156.93 104.131 158.17 104.131 159.636V163.156C104.131 163.463 104.118 163.696 104.091 163.856C104.078 164.003 104.025 164.17 103.931 164.356C103.745 164.716 103.225 164.896 102.371 164.896C101.425 164.896 100.878 164.65 100.731 164.156C100.651 163.93 100.611 163.59 100.611 163.136V159.616C100.611 159.07 100.451 158.643 100.131 158.336C99.8247 158.03 99.4047 157.876 98.8714 157.876C98.3514 157.876 97.9247 158.036 97.5914 158.356C97.2714 158.676 97.1114 159.096 97.1114 159.616V163.156C97.1114 163.463 97.0981 163.696 97.0714 163.856C97.0581 164.003 96.9981 164.17 96.8914 164.356C96.7181 164.716 96.2047 164.896 95.3514 164.896C94.5114 164.896 93.9981 164.716 93.8114 164.356C93.7181 164.156 93.6581 163.983 93.6314 163.836C93.6181 163.676 93.6114 163.443 93.6114 163.136V156.056C93.6114 155.763 93.6181 155.543 93.6314 155.396C93.6581 155.236 93.7247 155.063 93.8314 154.876C94.0181 154.543 94.5314 154.376 95.3714 154.376C96.1847 154.376 96.6847 154.53 96.8714 154.836C97.0047 155.063 97.0714 155.336 97.0714 155.656C97.1247 155.563 97.2447 155.43 97.4314 155.256C97.6181 155.083 97.7981 154.943 97.9714 154.836C98.4247 154.53 98.9247 154.376 99.4714 154.376ZM105.82 163.976C105.567 163.816 105.44 163.563 105.44 163.216C105.44 162.87 105.694 162.343 106.2 161.636C106.347 161.41 106.58 161.296 106.9 161.296C107.234 161.296 107.68 161.463 108.24 161.796C108.8 162.116 109.307 162.276 109.76 162.276C110.574 162.276 110.98 162.116 110.98 161.796C110.98 161.543 110.534 161.356 109.64 161.236C108.8 161.116 107.967 160.803 107.14 160.296C106.754 160.056 106.434 159.683 106.18 159.176C105.927 158.656 105.8 158.043 105.8 157.336C105.8 155.23 107.247 154.176 110.14 154.176C111.087 154.176 112.06 154.403 113.06 154.856C113.527 155.07 113.76 155.336 113.76 155.656C113.76 155.976 113.614 156.37 113.32 156.836C113.027 157.303 112.727 157.536 112.42 157.536C112.26 157.536 111.96 157.436 111.52 157.236C111.094 157.036 110.627 156.936 110.12 156.936C109.334 156.936 108.94 157.083 108.94 157.376C108.94 157.776 109.394 158.036 110.3 158.156C111.18 158.25 112.034 158.503 112.86 158.916C113.247 159.103 113.567 159.43 113.82 159.896C114.087 160.35 114.22 160.923 114.22 161.616C114.22 162.31 114.087 162.903 113.82 163.396C113.567 163.876 113.207 164.236 112.74 164.476C111.887 164.89 110.814 165.096 109.52 165.096C108.24 165.096 107.007 164.723 105.82 163.976ZM122.365 155.496C122.445 154.75 122.972 154.376 123.945 154.376C124.465 154.376 124.852 154.416 125.105 154.496C125.359 154.576 125.532 154.716 125.625 154.916C125.732 155.116 125.792 155.296 125.805 155.456C125.832 155.603 125.845 155.83 125.845 156.136V163.136C125.845 163.443 125.832 163.676 125.805 163.836C125.792 163.983 125.739 164.156 125.645 164.356C125.459 164.703 124.999 164.876 124.265 164.876C123.545 164.876 123.059 164.79 122.805 164.616C122.565 164.43 122.425 164.163 122.385 163.816C121.892 164.523 121.065 164.876 119.905 164.876C118.759 164.876 117.692 164.35 116.705 163.296C115.719 162.243 115.225 161.023 115.225 159.636C115.225 158.236 115.719 157.016 116.705 155.976C117.705 154.923 118.799 154.396 119.985 154.396C120.439 154.396 120.852 154.476 121.225 154.636C121.599 154.796 121.859 154.95 122.005 155.096C122.152 155.23 122.272 155.363 122.365 155.496ZM118.725 159.656C118.725 160.096 118.899 160.496 119.245 160.856C119.592 161.203 120.012 161.376 120.505 161.376C120.999 161.376 121.405 161.196 121.725 160.836C122.059 160.476 122.225 160.083 122.225 159.656C122.225 159.216 122.065 158.81 121.745 158.436C121.439 158.063 121.019 157.876 120.485 157.876C119.965 157.876 119.539 158.063 119.205 158.436C118.885 158.81 118.725 159.216 118.725 159.656ZM127.44 151.176C127.44 150.87 127.446 150.643 127.46 150.496C127.486 150.336 127.546 150.156 127.64 149.956C127.826 149.596 128.346 149.416 129.2 149.416C130.013 149.416 130.52 149.596 130.72 149.956C130.826 150.156 130.886 150.336 130.9 150.496C130.926 150.656 130.94 150.89 130.94 151.196V160.456C130.94 160.936 130.98 161.243 131.06 161.376C131.14 161.496 131.313 161.556 131.58 161.556C131.86 161.556 132.046 161.57 132.14 161.596C132.233 161.61 132.346 161.663 132.48 161.756C132.746 161.93 132.88 162.403 132.88 163.176C132.88 164.016 132.746 164.53 132.48 164.716C132.133 164.956 131.306 164.996 130 164.836C128.973 164.703 128.306 164.363 128 163.816C127.626 163.163 127.44 162.123 127.44 160.696V151.176Z" fill="#F5F5F5"/>
</g>
<g filter="url(#filter6_d_952_2)">
<path d="M248.104 470.453C248.216 470.533 248.276 470.609 248.284 470.681C248.3 470.745 248.272 470.833 248.2 470.945C248.152 471.017 248.104 471.069 248.056 471.101C248.008 471.125 247.956 471.129 247.9 471.113C247.844 471.105 247.78 471.077 247.708 471.029L246.172 469.985C245.804 470.385 245.372 470.705 244.876 470.945C244.388 471.177 243.864 471.293 243.304 471.293C242.736 471.293 242.204 471.185 241.708 470.969C241.212 470.753 240.772 470.453 240.388 470.069C240.012 469.685 239.716 469.241 239.5 468.737C239.292 468.233 239.188 467.693 239.188 467.117C239.188 466.525 239.292 465.969 239.5 465.449C239.708 464.929 239.996 464.473 240.364 464.081C240.732 463.689 241.156 463.381 241.636 463.157C242.124 462.933 242.644 462.821 243.196 462.821C243.764 462.821 244.296 462.929 244.792 463.145C245.288 463.361 245.72 463.665 246.088 464.057C246.464 464.441 246.756 464.893 246.964 465.413C247.18 465.925 247.288 466.477 247.288 467.069C247.288 467.501 247.228 467.917 247.108 468.317C246.988 468.717 246.816 469.085 246.592 469.421L248.104 470.453ZM243.232 470.573C243.696 470.573 244.128 470.485 244.528 470.309C244.936 470.125 245.292 469.873 245.596 469.553C245.9 469.225 246.136 468.849 246.304 468.425C246.48 468.001 246.568 467.545 246.568 467.057C246.568 466.577 246.48 466.125 246.304 465.701C246.136 465.277 245.896 464.905 245.584 464.585C245.28 464.257 244.928 464.001 244.528 463.817C244.128 463.633 243.7 463.541 243.244 463.541C242.788 463.541 242.356 463.633 241.948 463.817C241.548 464.001 241.192 464.253 240.88 464.573C240.576 464.893 240.336 465.269 240.16 465.701C239.992 466.125 239.908 466.581 239.908 467.069C239.908 467.549 239.996 468.001 240.172 468.425C240.348 468.849 240.588 469.221 240.892 469.541C241.196 469.861 241.548 470.113 241.948 470.297C242.348 470.481 242.776 470.573 243.232 470.573ZM251.357 471.245C251.013 471.245 250.697 471.189 250.409 471.077C250.121 470.957 249.869 470.789 249.653 470.573C249.437 470.349 249.269 470.081 249.149 469.769C249.029 469.449 248.969 469.085 248.969 468.677V465.857C248.969 465.769 248.977 465.701 248.993 465.653C249.017 465.597 249.053 465.561 249.101 465.545C249.157 465.521 249.225 465.509 249.305 465.509C249.393 465.509 249.461 465.521 249.509 465.545C249.565 465.569 249.601 465.609 249.617 465.665C249.641 465.713 249.653 465.781 249.653 465.869V468.689C249.653 469.073 249.717 469.413 249.845 469.709C249.973 469.997 250.165 470.221 250.421 470.381C250.677 470.541 250.997 470.621 251.381 470.621C251.773 470.621 252.109 470.541 252.389 470.381C252.669 470.221 252.885 469.997 253.037 469.709C253.189 469.413 253.265 469.073 253.265 468.689V465.857C253.265 465.769 253.273 465.701 253.289 465.653C253.313 465.597 253.349 465.561 253.397 465.545C253.453 465.521 253.525 465.509 253.613 465.509C253.693 465.509 253.757 465.521 253.805 465.545C253.853 465.569 253.885 465.609 253.901 465.665C253.925 465.713 253.937 465.781 253.937 465.869V470.909C253.937 470.981 253.925 471.041 253.901 471.089C253.885 471.137 253.853 471.169 253.805 471.185C253.757 471.209 253.689 471.221 253.601 471.221C253.545 471.221 253.497 471.213 253.457 471.197C253.417 471.189 253.385 471.173 253.361 471.149C253.337 471.125 253.317 471.093 253.301 471.053C253.293 471.013 253.289 470.965 253.289 470.909V470.201C253.185 470.337 253.069 470.469 252.941 470.597C252.813 470.717 252.669 470.829 252.509 470.933C252.357 471.029 252.185 471.105 251.993 471.161C251.801 471.217 251.589 471.245 251.357 471.245ZM258.223 471.257C257.783 471.257 257.379 471.185 257.011 471.041C256.651 470.897 256.339 470.693 256.075 470.429C255.819 470.165 255.619 469.853 255.475 469.493C255.331 469.133 255.259 468.733 255.259 468.293C255.259 467.773 255.383 467.305 255.631 466.889C255.879 466.473 256.223 466.145 256.663 465.905C257.103 465.657 257.607 465.533 258.175 465.533C258.543 465.533 258.879 465.589 259.183 465.701C259.487 465.813 259.751 465.965 259.975 466.157C260.199 466.349 260.371 466.569 260.491 466.817C260.619 467.065 260.683 467.321 260.683 467.585C260.683 467.977 260.591 468.245 260.407 468.389C260.231 468.525 260.015 468.593 259.759 468.593H255.979C255.963 469.017 256.067 469.381 256.291 469.685C256.523 469.989 256.811 470.225 257.155 470.393C257.507 470.553 257.859 470.633 258.211 470.633C258.443 470.633 258.643 470.621 258.811 470.597C258.987 470.573 259.135 470.541 259.255 470.501C259.383 470.453 259.491 470.409 259.579 470.369C259.667 470.321 259.747 470.277 259.819 470.237C259.891 470.189 259.959 470.153 260.023 470.129C260.063 470.113 260.107 470.109 260.155 470.117C260.211 470.117 260.251 470.137 260.275 470.177C260.315 470.233 260.343 470.285 260.359 470.333C260.375 470.373 260.383 470.421 260.383 470.477C260.383 470.549 260.287 470.649 260.095 470.777C259.903 470.897 259.643 471.005 259.315 471.101C258.987 471.205 258.623 471.257 258.223 471.257ZM255.979 468.017H259.555C259.715 468.017 259.839 468.001 259.927 467.969C260.015 467.929 260.059 467.809 260.059 467.609C260.059 467.345 259.975 467.105 259.807 466.889C259.647 466.665 259.427 466.485 259.147 466.349C258.867 466.213 258.547 466.145 258.187 466.145C257.787 466.145 257.415 466.225 257.071 466.385C256.735 466.545 256.467 466.769 256.267 467.057C256.067 467.337 255.971 467.657 255.979 468.017ZM262.447 471.233C262.367 471.233 262.303 471.221 262.255 471.197C262.207 471.173 262.171 471.133 262.147 471.077C262.131 471.021 262.123 470.949 262.123 470.861V465.857C262.123 465.761 262.131 465.689 262.147 465.641C262.171 465.585 262.207 465.549 262.255 465.533C262.303 465.517 262.371 465.509 262.459 465.509C262.539 465.509 262.603 465.517 262.651 465.533C262.707 465.549 262.747 465.585 262.771 465.641C262.795 465.689 262.807 465.761 262.807 465.857V466.361C262.887 466.225 262.967 466.101 263.047 465.989C263.127 465.877 263.223 465.781 263.335 465.701C263.447 465.613 263.583 465.545 263.743 465.497C263.911 465.449 264.119 465.425 264.367 465.425C264.495 465.425 264.611 465.437 264.715 465.461C264.827 465.485 264.927 465.517 265.015 465.557C265.111 465.597 265.191 465.641 265.255 465.689C265.319 465.737 265.367 465.785 265.399 465.833C265.431 465.881 265.447 465.929 265.447 465.977C265.447 466.081 265.403 466.169 265.315 466.241C265.227 466.313 265.147 466.349 265.075 466.349C264.987 466.349 264.919 466.337 264.871 466.313C264.831 466.281 264.787 466.245 264.739 466.205C264.691 466.165 264.619 466.133 264.523 466.109C264.427 466.077 264.279 466.061 264.079 466.061C263.959 466.061 263.827 466.089 263.683 466.145C263.539 466.193 263.399 466.269 263.263 466.373C263.135 466.477 263.027 466.613 262.939 466.781C262.851 466.949 262.807 467.149 262.807 467.381V470.885C262.807 470.973 262.795 471.045 262.771 471.101C262.755 471.149 262.719 471.181 262.663 471.197C262.615 471.221 262.543 471.233 262.447 471.233ZM269.271 471.281C268.871 471.281 268.495 471.205 268.143 471.053C267.791 470.901 267.479 470.693 267.207 470.429C266.943 470.165 266.735 469.857 266.583 469.505C266.431 469.153 266.355 468.777 266.355 468.377C266.355 467.969 266.427 467.593 266.571 467.249C266.723 466.897 266.931 466.589 267.195 466.325C267.467 466.053 267.775 465.845 268.119 465.701C268.471 465.549 268.847 465.473 269.247 465.473C269.783 465.473 270.267 465.601 270.699 465.857C271.131 466.105 271.475 466.449 271.731 466.889C271.987 467.321 272.115 467.813 272.115 468.365C272.115 468.781 272.039 469.165 271.887 469.517C271.743 469.869 271.539 470.177 271.275 470.441C271.019 470.705 270.719 470.913 270.375 471.065C270.031 471.209 269.663 471.281 269.271 471.281ZM269.247 470.633C269.655 470.633 270.023 470.533 270.351 470.333C270.687 470.125 270.951 469.849 271.143 469.505C271.343 469.153 271.443 468.765 271.443 468.341C271.443 467.909 271.347 467.525 271.155 467.189C270.963 466.853 270.699 466.593 270.363 466.409C270.035 466.217 269.659 466.121 269.235 466.121C268.819 466.121 268.443 466.221 268.107 466.421C267.779 466.613 267.515 466.877 267.315 467.213C267.123 467.549 267.027 467.929 267.027 468.353C267.027 468.785 267.123 469.173 267.315 469.517C267.515 469.861 267.783 470.133 268.119 470.333C268.455 470.533 268.831 470.633 269.247 470.633ZM273.946 469.061C273.858 469.061 273.786 469.053 273.73 469.037C273.682 469.013 273.646 468.977 273.622 468.929C273.606 468.873 273.598 468.801 273.598 468.713V463.217C273.598 463.129 273.606 463.061 273.622 463.013C273.646 462.957 273.682 462.917 273.73 462.893C273.786 462.869 273.854 462.857 273.934 462.857C274.022 462.857 274.09 462.869 274.138 462.893C274.194 462.909 274.23 462.945 274.246 463.001C274.27 463.049 274.282 463.117 274.282 463.205V468.689C274.282 468.777 274.27 468.849 274.246 468.905C274.23 468.961 274.198 469.001 274.15 469.025C274.102 469.049 274.034 469.061 273.946 469.061ZM273.946 471.233C273.77 471.233 273.65 471.201 273.586 471.137C273.522 471.073 273.49 470.957 273.49 470.789C273.49 470.669 273.502 470.577 273.526 470.513C273.558 470.441 273.606 470.389 273.67 470.357C273.734 470.325 273.822 470.309 273.934 470.309C274.11 470.309 274.23 470.345 274.294 470.417C274.358 470.481 274.39 470.593 274.39 470.753C274.39 470.873 274.374 470.969 274.342 471.041C274.318 471.105 274.274 471.153 274.21 471.185C274.146 471.217 274.058 471.233 273.946 471.233Z" fill="#F5F5F5"/>
</g>
<g filter="url(#filter7_d_952_2)">
<path d="M151.848 161.024C151.536 161.024 151.251 160.979 150.993 160.889C150.741 160.799 150.519 160.676 150.327 160.52C150.135 160.364 149.982 160.187 149.868 159.989C149.76 159.791 149.694 159.584 149.67 159.368C149.67 159.212 149.76 159.134 149.94 159.134C150.018 159.134 150.072 159.146 150.102 159.17C150.138 159.188 150.162 159.224 150.174 159.278C150.192 159.332 150.21 159.404 150.228 159.494C150.312 159.734 150.435 159.932 150.597 160.088C150.759 160.238 150.948 160.352 151.164 160.43C151.38 160.502 151.611 160.538 151.857 160.538C152.181 160.538 152.466 160.478 152.712 160.358C152.958 160.238 153.15 160.073 153.288 159.863C153.426 159.653 153.495 159.416 153.495 159.152C153.495 158.9 153.426 158.678 153.288 158.486C153.15 158.288 152.964 158.135 152.73 158.027C152.496 157.913 152.232 157.856 151.938 157.856C151.842 157.856 151.767 157.847 151.713 157.829C151.665 157.811 151.632 157.784 151.614 157.748C151.596 157.706 151.587 157.652 151.587 157.586C151.587 157.52 151.596 157.469 151.614 157.433C151.632 157.397 151.665 157.37 151.713 157.352C151.767 157.334 151.845 157.325 151.947 157.325C152.229 157.325 152.466 157.277 152.658 157.181C152.85 157.085 152.994 156.962 153.09 156.812C153.192 156.662 153.243 156.506 153.243 156.344C153.243 156.11 153.186 155.903 153.072 155.723C152.964 155.537 152.811 155.393 152.613 155.291C152.415 155.189 152.184 155.138 151.92 155.138C151.716 155.138 151.53 155.165 151.362 155.219C151.194 155.273 151.038 155.357 150.894 155.471C150.756 155.579 150.624 155.723 150.498 155.903C150.426 155.999 150.369 156.053 150.327 156.065C150.285 156.071 150.21 156.041 150.102 155.975C150.06 155.945 150.027 155.915 150.003 155.885C149.979 155.849 149.976 155.81 149.994 155.768C150.036 155.684 150.09 155.594 150.156 155.498C150.228 155.396 150.315 155.297 150.417 155.201C150.525 155.099 150.648 155.009 150.786 154.931C150.93 154.847 151.092 154.781 151.272 154.733C151.458 154.679 151.668 154.652 151.902 154.652C152.19 154.652 152.451 154.697 152.685 154.787C152.919 154.871 153.117 154.988 153.279 155.138C153.441 155.288 153.564 155.462 153.648 155.66C153.738 155.858 153.783 156.071 153.783 156.299C153.783 156.485 153.744 156.665 153.666 156.839C153.588 157.007 153.483 157.157 153.351 157.289C153.219 157.415 153.075 157.514 152.919 157.586C153.117 157.652 153.285 157.748 153.423 157.874C153.561 157.994 153.675 158.129 153.765 158.279C153.855 158.429 153.921 158.579 153.963 158.729C154.005 158.879 154.026 159.014 154.026 159.134C154.026 159.488 153.933 159.809 153.747 160.097C153.567 160.385 153.312 160.613 152.982 160.781C152.658 160.943 152.28 161.024 151.848 161.024ZM157.228 161.033C156.94 161.033 156.679 160.991 156.445 160.907C156.211 160.817 156.004 160.685 155.824 160.511C155.644 160.337 155.494 160.121 155.374 159.863C155.254 159.605 155.164 159.308 155.104 158.972C155.044 158.636 155.014 158.261 155.014 157.847C155.014 157.439 155.044 157.07 155.104 156.74C155.164 156.404 155.254 156.11 155.374 155.858C155.494 155.6 155.641 155.384 155.815 155.21C155.995 155.03 156.202 154.895 156.436 154.805C156.67 154.715 156.928 154.67 157.21 154.67C157.486 154.67 157.738 154.715 157.966 154.805C158.194 154.895 158.395 155.03 158.569 155.21C158.743 155.384 158.89 155.6 159.01 155.858C159.13 156.116 159.22 156.413 159.28 156.749C159.34 157.079 159.37 157.448 159.37 157.856C159.37 158.264 159.34 158.636 159.28 158.972C159.22 159.302 159.13 159.596 159.01 159.854C158.896 160.112 158.752 160.328 158.578 160.502C158.404 160.676 158.203 160.808 157.975 160.898C157.753 160.988 157.504 161.033 157.228 161.033ZM157.183 160.493C157.513 160.493 157.78 160.424 157.984 160.286C158.194 160.148 158.356 159.971 158.47 159.755C158.59 159.539 158.674 159.311 158.722 159.071C158.776 158.831 158.809 158.606 158.821 158.396C158.833 158.186 158.839 158.021 158.839 157.901V157.847C158.839 157.289 158.776 156.812 158.65 156.416C158.53 156.02 158.347 155.72 158.101 155.516C157.861 155.306 157.561 155.201 157.201 155.201C156.835 155.201 156.529 155.306 156.283 155.516C156.037 155.72 155.851 156.02 155.725 156.416C155.605 156.806 155.545 157.286 155.545 157.856C155.545 158.414 155.605 158.891 155.725 159.287C155.851 159.677 156.034 159.977 156.274 160.187C156.52 160.391 156.823 160.493 157.183 160.493ZM164.729 161.015C164.453 161.015 164.192 160.964 163.946 160.862C163.706 160.76 163.496 160.613 163.316 160.421C163.136 160.229 162.995 160.001 162.893 159.737C162.791 159.467 162.74 159.17 162.74 158.846C162.74 158.528 162.791 158.24 162.893 157.982C162.995 157.718 163.136 157.493 163.316 157.307C163.496 157.115 163.706 156.968 163.946 156.866C164.192 156.764 164.453 156.713 164.729 156.713C165.023 156.713 165.293 156.764 165.539 156.866C165.785 156.968 165.998 157.115 166.178 157.307C166.358 157.499 166.496 157.727 166.592 157.991C166.694 158.255 166.745 158.549 166.745 158.873C166.745 159.197 166.694 159.491 166.592 159.755C166.496 160.013 166.358 160.238 166.178 160.43C165.998 160.616 165.785 160.76 165.539 160.862C165.293 160.964 165.023 161.015 164.729 161.015ZM164.81 160.538C165.11 160.538 165.377 160.469 165.611 160.331C165.845 160.187 166.031 159.992 166.169 159.746C166.307 159.494 166.376 159.203 166.376 158.873C166.376 158.537 166.307 158.243 166.169 157.991C166.031 157.739 165.842 157.544 165.602 157.406C165.368 157.262 165.104 157.19 164.81 157.19C164.516 157.19 164.249 157.262 164.009 157.406C163.769 157.544 163.58 157.739 163.442 157.991C163.304 158.243 163.235 158.537 163.235 158.873C163.235 159.203 163.304 159.494 163.442 159.746C163.58 159.992 163.769 160.187 164.009 160.331C164.249 160.469 164.516 160.538 164.81 160.538ZM166.664 161.015C166.568 161.015 166.499 160.994 166.457 160.952C166.421 160.91 166.403 160.841 166.403 160.745V155.012C166.403 154.94 166.409 154.886 166.421 154.85C166.439 154.808 166.466 154.778 166.502 154.76C166.544 154.742 166.595 154.733 166.655 154.733C166.721 154.733 166.772 154.742 166.808 154.76C166.844 154.778 166.871 154.808 166.889 154.85C166.907 154.886 166.916 154.937 166.916 155.003V160.736C166.916 160.802 166.907 160.856 166.889 160.898C166.877 160.94 166.853 160.97 166.817 160.988C166.781 161.006 166.73 161.015 166.664 161.015ZM168.525 161.015C168.465 161.015 168.414 161.006 168.372 160.988C168.336 160.97 168.309 160.943 168.291 160.907C168.279 160.865 168.273 160.811 168.273 160.745V156.983C168.273 156.917 168.279 156.866 168.291 156.83C168.309 156.788 168.336 156.761 168.372 156.749C168.414 156.731 168.468 156.722 168.534 156.722C168.6 156.722 168.651 156.731 168.687 156.749C168.723 156.767 168.747 156.797 168.759 156.839C168.777 156.875 168.786 156.929 168.786 157.001V160.754C168.786 160.82 168.777 160.874 168.759 160.916C168.747 160.952 168.72 160.976 168.678 160.988C168.642 161.006 168.591 161.015 168.525 161.015ZM168.525 155.426C168.441 155.426 168.375 155.414 168.327 155.39C168.279 155.366 168.243 155.327 168.219 155.273C168.201 155.219 168.192 155.15 168.192 155.066C168.192 154.982 168.201 154.916 168.219 154.868C168.243 154.82 168.279 154.787 168.327 154.769C168.381 154.745 168.45 154.733 168.534 154.733C168.618 154.733 168.684 154.745 168.732 154.769C168.78 154.793 168.813 154.832 168.831 154.886C168.855 154.934 168.867 155.003 168.867 155.093C168.867 155.171 168.855 155.237 168.831 155.291C168.813 155.339 168.78 155.375 168.732 155.399C168.684 155.417 168.615 155.426 168.525 155.426ZM173.711 161.006C173.627 161.006 173.567 160.985 173.531 160.943C173.495 160.901 173.471 160.823 173.459 160.709V160.106C173.393 160.22 173.288 160.349 173.144 160.493C173.006 160.631 172.823 160.754 172.595 160.862C172.373 160.964 172.103 161.015 171.785 161.015C171.491 161.015 171.218 160.961 170.966 160.853C170.72 160.739 170.504 160.583 170.318 160.385C170.132 160.187 169.985 159.959 169.877 159.701C169.775 159.437 169.724 159.152 169.724 158.846C169.724 158.552 169.775 158.279 169.877 158.027C169.985 157.769 170.132 157.544 170.318 157.352C170.51 157.154 170.729 157.001 170.975 156.893C171.227 156.779 171.497 156.722 171.785 156.722C172.067 156.722 172.307 156.758 172.505 156.83C172.709 156.902 172.886 157.001 173.036 157.127C173.192 157.253 173.333 157.4 173.459 157.568V157.055C173.459 156.935 173.477 156.851 173.513 156.803C173.555 156.749 173.624 156.722 173.72 156.722C173.78 156.722 173.825 156.734 173.855 156.758C173.891 156.776 173.915 156.809 173.927 156.857C173.945 156.905 173.954 156.971 173.954 157.055V160.709C173.954 160.781 173.945 160.841 173.927 160.889C173.915 160.931 173.891 160.961 173.855 160.979C173.819 160.997 173.771 161.006 173.711 161.006ZM171.884 160.547C172.172 160.547 172.433 160.475 172.667 160.331C172.901 160.181 173.087 159.98 173.225 159.728C173.363 159.476 173.432 159.188 173.432 158.864C173.432 158.522 173.36 158.225 173.216 157.973C173.072 157.721 172.88 157.526 172.64 157.388C172.406 157.244 172.148 157.172 171.866 157.172C171.536 157.172 171.248 157.247 171.002 157.397C170.756 157.547 170.564 157.751 170.426 158.009C170.288 158.261 170.219 158.552 170.219 158.882C170.219 159.2 170.288 159.485 170.426 159.737C170.564 159.989 170.759 160.187 171.011 160.331C171.263 160.475 171.554 160.547 171.884 160.547ZM176.574 161.042C176.436 161.042 176.295 161.027 176.151 160.997C176.013 160.973 175.878 160.937 175.746 160.889C175.62 160.835 175.503 160.775 175.395 160.709C175.287 160.637 175.2 160.559 175.134 160.475C175.092 160.415 175.062 160.364 175.044 160.322C175.026 160.28 175.023 160.241 175.035 160.205C175.053 160.169 175.083 160.136 175.125 160.106C175.191 160.034 175.254 160.004 175.314 160.016C175.374 160.028 175.452 160.085 175.548 160.187C175.602 160.247 175.671 160.304 175.755 160.358C175.839 160.406 175.929 160.448 176.025 160.484C176.121 160.52 176.217 160.547 176.313 160.565C176.409 160.583 176.499 160.592 176.583 160.592C176.913 160.592 177.18 160.529 177.384 160.403C177.588 160.271 177.69 160.094 177.69 159.872C177.69 159.758 177.669 159.659 177.627 159.575C177.585 159.485 177.528 159.41 177.456 159.35C177.384 159.29 177.3 159.239 177.204 159.197C177.114 159.149 177.012 159.11 176.898 159.08C176.79 159.044 176.679 159.011 176.565 158.981C176.397 158.939 176.229 158.894 176.061 158.846C175.899 158.792 175.752 158.726 175.62 158.648C175.488 158.57 175.38 158.468 175.296 158.342C175.218 158.216 175.179 158.054 175.179 157.856C175.179 157.628 175.236 157.43 175.35 157.262C175.47 157.094 175.635 156.962 175.845 156.866C176.055 156.77 176.298 156.722 176.574 156.722C176.712 156.722 176.841 156.734 176.961 156.758C177.081 156.776 177.192 156.806 177.294 156.848C177.402 156.89 177.501 156.941 177.591 157.001C177.687 157.055 177.774 157.121 177.852 157.199C177.924 157.265 177.963 157.325 177.969 157.379C177.975 157.433 177.954 157.49 177.906 157.55C177.852 157.61 177.795 157.646 177.735 157.658C177.675 157.664 177.612 157.634 177.546 157.568C177.45 157.472 177.348 157.397 177.24 157.343C177.138 157.283 177.03 157.238 176.916 157.208C176.808 157.178 176.694 157.163 176.574 157.163C176.4 157.163 176.244 157.193 176.106 157.253C175.968 157.307 175.86 157.388 175.782 157.496C175.71 157.598 175.674 157.718 175.674 157.856C175.674 157.958 175.698 158.045 175.746 158.117C175.8 158.183 175.869 158.24 175.953 158.288C176.037 158.336 176.136 158.378 176.25 158.414C176.364 158.45 176.484 158.486 176.61 158.522C176.79 158.57 176.973 158.624 177.159 158.684C177.345 158.738 177.513 158.813 177.663 158.909C177.819 158.999 177.945 159.119 178.041 159.269C178.137 159.419 178.185 159.614 178.185 159.854C178.185 160.214 178.032 160.502 177.726 160.718C177.426 160.934 177.042 161.042 176.574 161.042ZM151.704 167.015C151.428 167.015 151.167 166.964 150.921 166.862C150.681 166.76 150.471 166.613 150.291 166.421C150.111 166.229 149.97 166.001 149.868 165.737C149.766 165.467 149.715 165.17 149.715 164.846C149.715 164.528 149.766 164.24 149.868 163.982C149.97 163.718 150.111 163.493 150.291 163.307C150.471 163.115 150.681 162.968 150.921 162.866C151.167 162.764 151.428 162.713 151.704 162.713C151.998 162.713 152.268 162.764 152.514 162.866C152.76 162.968 152.973 163.115 153.153 163.307C153.333 163.499 153.471 163.727 153.567 163.991C153.669 164.255 153.72 164.549 153.72 164.873C153.72 165.197 153.669 165.491 153.567 165.755C153.471 166.013 153.333 166.238 153.153 166.43C152.973 166.616 152.76 166.76 152.514 166.862C152.268 166.964 151.998 167.015 151.704 167.015ZM151.785 166.538C152.085 166.538 152.352 166.469 152.586 166.331C152.82 166.187 153.006 165.992 153.144 165.746C153.282 165.494 153.351 165.203 153.351 164.873C153.351 164.537 153.282 164.243 153.144 163.991C153.006 163.739 152.817 163.544 152.577 163.406C152.343 163.262 152.079 163.19 151.785 163.19C151.491 163.19 151.224 163.262 150.984 163.406C150.744 163.544 150.555 163.739 150.417 163.991C150.279 164.243 150.21 164.537 150.21 164.873C150.21 165.203 150.279 165.494 150.417 165.746C150.555 165.992 150.744 166.187 150.984 166.331C151.224 166.469 151.491 166.538 151.785 166.538ZM153.639 167.015C153.543 167.015 153.474 166.994 153.432 166.952C153.396 166.91 153.378 166.841 153.378 166.745V161.012C153.378 160.94 153.384 160.886 153.396 160.85C153.414 160.808 153.441 160.778 153.477 160.76C153.519 160.742 153.57 160.733 153.63 160.733C153.696 160.733 153.747 160.742 153.783 160.76C153.819 160.778 153.846 160.808 153.864 160.85C153.882 160.886 153.891 160.937 153.891 161.003V166.736C153.891 166.802 153.882 166.856 153.864 166.898C153.852 166.94 153.828 166.97 153.792 166.988C153.756 167.006 153.705 167.015 153.639 167.015ZM157.164 167.033C156.834 167.033 156.531 166.979 156.255 166.871C155.985 166.763 155.751 166.61 155.553 166.412C155.361 166.214 155.211 165.98 155.103 165.71C154.995 165.44 154.941 165.14 154.941 164.81C154.941 164.42 155.034 164.069 155.22 163.757C155.406 163.445 155.664 163.199 155.994 163.019C156.324 162.833 156.702 162.74 157.128 162.74C157.404 162.74 157.656 162.782 157.884 162.866C158.112 162.95 158.31 163.064 158.478 163.208C158.646 163.352 158.775 163.517 158.865 163.703C158.961 163.889 159.009 164.081 159.009 164.279C159.009 164.573 158.94 164.774 158.802 164.882C158.67 164.984 158.508 165.035 158.316 165.035H155.481C155.469 165.353 155.547 165.626 155.715 165.854C155.889 166.082 156.105 166.259 156.363 166.385C156.627 166.505 156.891 166.565 157.155 166.565C157.329 166.565 157.479 166.556 157.605 166.538C157.737 166.52 157.848 166.496 157.938 166.466C158.034 166.43 158.115 166.397 158.181 166.367C158.247 166.331 158.307 166.298 158.361 166.268C158.415 166.232 158.466 166.205 158.514 166.187C158.544 166.175 158.577 166.172 158.613 166.178C158.655 166.178 158.685 166.193 158.703 166.223C158.733 166.265 158.754 166.304 158.766 166.34C158.778 166.37 158.784 166.406 158.784 166.448C158.784 166.502 158.712 166.577 158.568 166.673C158.424 166.763 158.229 166.844 157.983 166.916C157.737 166.994 157.464 167.033 157.164 167.033ZM155.481 164.603H158.163C158.283 164.603 158.376 164.591 158.442 164.567C158.508 164.537 158.541 164.447 158.541 164.297C158.541 164.099 158.478 163.919 158.352 163.757C158.232 163.589 158.067 163.454 157.857 163.352C157.647 163.25 157.407 163.199 157.137 163.199C156.837 163.199 156.558 163.259 156.3 163.379C156.048 163.499 155.847 163.667 155.697 163.883C155.547 164.093 155.475 164.333 155.481 164.603ZM165.968 167.006C165.884 167.006 165.824 166.985 165.788 166.943C165.752 166.901 165.728 166.823 165.716 166.709V166.106C165.65 166.22 165.545 166.349 165.401 166.493C165.263 166.631 165.08 166.754 164.852 166.862C164.63 166.964 164.36 167.015 164.042 167.015C163.748 167.015 163.475 166.961 163.223 166.853C162.977 166.739 162.761 166.583 162.575 166.385C162.389 166.187 162.242 165.959 162.134 165.701C162.032 165.437 161.981 165.152 161.981 164.846C161.981 164.552 162.032 164.279 162.134 164.027C162.242 163.769 162.389 163.544 162.575 163.352C162.767 163.154 162.986 163.001 163.232 162.893C163.484 162.779 163.754 162.722 164.042 162.722C164.324 162.722 164.564 162.758 164.762 162.83C164.966 162.902 165.143 163.001 165.293 163.127C165.449 163.253 165.59 163.4 165.716 163.568V163.055C165.716 162.935 165.734 162.851 165.77 162.803C165.812 162.749 165.881 162.722 165.977 162.722C166.037 162.722 166.082 162.734 166.112 162.758C166.148 162.776 166.172 162.809 166.184 162.857C166.202 162.905 166.211 162.971 166.211 163.055V166.709C166.211 166.781 166.202 166.841 166.184 166.889C166.172 166.931 166.148 166.961 166.112 166.979C166.076 166.997 166.028 167.006 165.968 167.006ZM164.141 166.547C164.429 166.547 164.69 166.475 164.924 166.331C165.158 166.181 165.344 165.98 165.482 165.728C165.62 165.476 165.689 165.188 165.689 164.864C165.689 164.522 165.617 164.225 165.473 163.973C165.329 163.721 165.137 163.526 164.897 163.388C164.663 163.244 164.405 163.172 164.123 163.172C163.793 163.172 163.505 163.247 163.259 163.397C163.013 163.547 162.821 163.751 162.683 164.009C162.545 164.261 162.476 164.552 162.476 164.882C162.476 165.2 162.545 165.485 162.683 165.737C162.821 165.989 163.016 166.187 163.268 166.331C163.52 166.475 163.811 166.547 164.141 166.547ZM169.425 167.015C169.095 167.015 168.792 166.964 168.516 166.862C168.246 166.76 168.012 166.616 167.814 166.43C167.616 166.238 167.463 166.013 167.355 165.755C167.253 165.491 167.202 165.197 167.202 164.873C167.202 164.549 167.253 164.258 167.355 164C167.463 163.736 167.613 163.508 167.805 163.316C168.003 163.124 168.237 162.977 168.507 162.875C168.777 162.773 169.077 162.722 169.407 162.722C169.605 162.722 169.806 162.758 170.01 162.83C170.22 162.896 170.409 162.986 170.577 163.1C170.745 163.208 170.865 163.331 170.937 163.469C170.979 163.547 171 163.604 171 163.64C171 163.676 170.985 163.712 170.955 163.748C170.919 163.79 170.877 163.823 170.829 163.847C170.787 163.871 170.748 163.883 170.712 163.883C170.64 163.883 170.571 163.841 170.505 163.757C170.445 163.673 170.373 163.598 170.289 163.532C170.205 163.466 170.112 163.409 170.01 163.361C169.914 163.313 169.815 163.277 169.713 163.253C169.611 163.223 169.509 163.208 169.407 163.208C169.071 163.208 168.777 163.277 168.525 163.415C168.273 163.553 168.078 163.748 167.94 164C167.802 164.246 167.733 164.537 167.733 164.873C167.733 165.203 167.802 165.494 167.94 165.746C168.078 165.992 168.27 166.184 168.516 166.322C168.768 166.46 169.059 166.529 169.389 166.529C169.527 166.529 169.665 166.511 169.803 166.475C169.941 166.439 170.073 166.388 170.199 166.322C170.325 166.25 170.433 166.169 170.523 166.079C170.571 166.037 170.61 166.004 170.64 165.98C170.676 165.95 170.718 165.935 170.766 165.935C170.802 165.935 170.835 165.95 170.865 165.98C170.901 166.004 170.937 166.04 170.973 166.088C170.997 166.112 171.012 166.142 171.018 166.178C171.024 166.208 171.021 166.241 171.009 166.277C171.003 166.313 170.985 166.346 170.955 166.376C170.829 166.502 170.676 166.613 170.496 166.709C170.322 166.805 170.139 166.88 169.947 166.934C169.761 166.988 169.587 167.015 169.425 167.015ZM174.013 167.033C173.683 167.033 173.38 166.979 173.104 166.871C172.834 166.763 172.6 166.61 172.402 166.412C172.21 166.214 172.06 165.98 171.952 165.71C171.844 165.44 171.79 165.14 171.79 164.81C171.79 164.42 171.883 164.069 172.069 163.757C172.255 163.445 172.513 163.199 172.843 163.019C173.173 162.833 173.551 162.74 173.977 162.74C174.253 162.74 174.505 162.782 174.733 162.866C174.961 162.95 175.159 163.064 175.327 163.208C175.495 163.352 175.624 163.517 175.714 163.703C175.81 163.889 175.858 164.081 175.858 164.279C175.858 164.573 175.789 164.774 175.651 164.882C175.519 164.984 175.357 165.035 175.165 165.035H172.33C172.318 165.353 172.396 165.626 172.564 165.854C172.738 166.082 172.954 166.259 173.212 166.385C173.476 166.505 173.74 166.565 174.004 166.565C174.178 166.565 174.328 166.556 174.454 166.538C174.586 166.52 174.697 166.496 174.787 166.466C174.883 166.43 174.964 166.397 175.03 166.367C175.096 166.331 175.156 166.298 175.21 166.268C175.264 166.232 175.315 166.205 175.363 166.187C175.393 166.175 175.426 166.172 175.462 166.178C175.504 166.178 175.534 166.193 175.552 166.223C175.582 166.265 175.603 166.304 175.615 166.34C175.627 166.37 175.633 166.406 175.633 166.448C175.633 166.502 175.561 166.577 175.417 166.673C175.273 166.763 175.078 166.844 174.832 166.916C174.586 166.994 174.313 167.033 174.013 167.033ZM172.33 164.603H175.012C175.132 164.603 175.225 164.591 175.291 164.567C175.357 164.537 175.39 164.447 175.39 164.297C175.39 164.099 175.327 163.919 175.201 163.757C175.081 163.589 174.916 163.454 174.706 163.352C174.496 163.25 174.256 163.199 173.986 163.199C173.686 163.199 173.407 163.259 173.149 163.379C172.897 163.499 172.696 163.667 172.546 163.883C172.396 164.093 172.324 164.333 172.33 164.603ZM178.297 167.042C178.159 167.042 178.018 167.027 177.874 166.997C177.736 166.973 177.601 166.937 177.469 166.889C177.343 166.835 177.226 166.775 177.118 166.709C177.01 166.637 176.923 166.559 176.857 166.475C176.815 166.415 176.785 166.364 176.767 166.322C176.749 166.28 176.746 166.241 176.758 166.205C176.776 166.169 176.806 166.136 176.848 166.106C176.914 166.034 176.977 166.004 177.037 166.016C177.097 166.028 177.175 166.085 177.271 166.187C177.325 166.247 177.394 166.304 177.478 166.358C177.562 166.406 177.652 166.448 177.748 166.484C177.844 166.52 177.94 166.547 178.036 166.565C178.132 166.583 178.222 166.592 178.306 166.592C178.636 166.592 178.903 166.529 179.107 166.403C179.311 166.271 179.413 166.094 179.413 165.872C179.413 165.758 179.392 165.659 179.35 165.575C179.308 165.485 179.251 165.41 179.179 165.35C179.107 165.29 179.023 165.239 178.927 165.197C178.837 165.149 178.735 165.11 178.621 165.08C178.513 165.044 178.402 165.011 178.288 164.981C178.12 164.939 177.952 164.894 177.784 164.846C177.622 164.792 177.475 164.726 177.343 164.648C177.211 164.57 177.103 164.468 177.019 164.342C176.941 164.216 176.902 164.054 176.902 163.856C176.902 163.628 176.959 163.43 177.073 163.262C177.193 163.094 177.358 162.962 177.568 162.866C177.778 162.77 178.021 162.722 178.297 162.722C178.435 162.722 178.564 162.734 178.684 162.758C178.804 162.776 178.915 162.806 179.017 162.848C179.125 162.89 179.224 162.941 179.314 163.001C179.41 163.055 179.497 163.121 179.575 163.199C179.647 163.265 179.686 163.325 179.692 163.379C179.698 163.433 179.677 163.49 179.629 163.55C179.575 163.61 179.518 163.646 179.458 163.658C179.398 163.664 179.335 163.634 179.269 163.568C179.173 163.472 179.071 163.397 178.963 163.343C178.861 163.283 178.753 163.238 178.639 163.208C178.531 163.178 178.417 163.163 178.297 163.163C178.123 163.163 177.967 163.193 177.829 163.253C177.691 163.307 177.583 163.388 177.505 163.496C177.433 163.598 177.397 163.718 177.397 163.856C177.397 163.958 177.421 164.045 177.469 164.117C177.523 164.183 177.592 164.24 177.676 164.288C177.76 164.336 177.859 164.378 177.973 164.414C178.087 164.45 178.207 164.486 178.333 164.522C178.513 164.57 178.696 164.624 178.882 164.684C179.068 164.738 179.236 164.813 179.386 164.909C179.542 164.999 179.668 165.119 179.764 165.269C179.86 165.419 179.908 165.614 179.908 165.854C179.908 166.214 179.755 166.502 179.449 166.718C179.149 166.934 178.765 167.042 178.297 167.042ZM182.261 167.042C182.123 167.042 181.982 167.027 181.838 166.997C181.7 166.973 181.565 166.937 181.433 166.889C181.307 166.835 181.19 166.775 181.082 166.709C180.974 166.637 180.887 166.559 180.821 166.475C180.779 166.415 180.749 166.364 180.731 166.322C180.713 166.28 180.71 166.241 180.722 166.205C180.74 166.169 180.77 166.136 180.812 166.106C180.878 166.034 180.941 166.004 181.001 166.016C181.061 166.028 181.139 166.085 181.235 166.187C181.289 166.247 181.358 166.304 181.442 166.358C181.526 166.406 181.616 166.448 181.712 166.484C181.808 166.52 181.904 166.547 182 166.565C182.096 166.583 182.186 166.592 182.27 166.592C182.6 166.592 182.867 166.529 183.071 166.403C183.275 166.271 183.377 166.094 183.377 165.872C183.377 165.758 183.356 165.659 183.314 165.575C183.272 165.485 183.215 165.41 183.143 165.35C183.071 165.29 182.987 165.239 182.891 165.197C182.801 165.149 182.699 165.11 182.585 165.08C182.477 165.044 182.366 165.011 182.252 164.981C182.084 164.939 181.916 164.894 181.748 164.846C181.586 164.792 181.439 164.726 181.307 164.648C181.175 164.57 181.067 164.468 180.983 164.342C180.905 164.216 180.866 164.054 180.866 163.856C180.866 163.628 180.923 163.43 181.037 163.262C181.157 163.094 181.322 162.962 181.532 162.866C181.742 162.77 181.985 162.722 182.261 162.722C182.399 162.722 182.528 162.734 182.648 162.758C182.768 162.776 182.879 162.806 182.981 162.848C183.089 162.89 183.188 162.941 183.278 163.001C183.374 163.055 183.461 163.121 183.539 163.199C183.611 163.265 183.65 163.325 183.656 163.379C183.662 163.433 183.641 163.49 183.593 163.55C183.539 163.61 183.482 163.646 183.422 163.658C183.362 163.664 183.299 163.634 183.233 163.568C183.137 163.472 183.035 163.397 182.927 163.343C182.825 163.283 182.717 163.238 182.603 163.208C182.495 163.178 182.381 163.163 182.261 163.163C182.087 163.163 181.931 163.193 181.793 163.253C181.655 163.307 181.547 163.388 181.469 163.496C181.397 163.598 181.361 163.718 181.361 163.856C181.361 163.958 181.385 164.045 181.433 164.117C181.487 164.183 181.556 164.24 181.64 164.288C181.724 164.336 181.823 164.378 181.937 164.414C182.051 164.45 182.171 164.486 182.297 164.522C182.477 164.57 182.66 164.624 182.846 164.684C183.032 164.738 183.2 164.813 183.35 164.909C183.506 164.999 183.632 165.119 183.728 165.269C183.824 165.419 183.872 165.614 183.872 165.854C183.872 166.214 183.719 166.502 183.413 166.718C183.113 166.934 182.729 167.042 182.261 167.042ZM186.913 167.051C186.613 167.051 186.331 166.994 186.067 166.88C185.803 166.766 185.569 166.61 185.365 166.412C185.167 166.214 185.011 165.983 184.897 165.719C184.783 165.455 184.726 165.173 184.726 164.873C184.726 164.567 184.78 164.285 184.888 164.027C185.002 163.763 185.158 163.532 185.356 163.334C185.56 163.13 185.791 162.974 186.049 162.866C186.313 162.752 186.595 162.695 186.895 162.695C187.297 162.695 187.66 162.791 187.984 162.983C188.308 163.169 188.566 163.427 188.758 163.757C188.95 164.081 189.046 164.45 189.046 164.864C189.046 165.176 188.989 165.464 188.875 165.728C188.767 165.992 188.614 166.223 188.416 166.421C188.224 166.619 187.999 166.775 187.741 166.889C187.483 166.997 187.207 167.051 186.913 167.051ZM186.895 166.565C187.201 166.565 187.477 166.49 187.723 166.34C187.975 166.184 188.173 165.977 188.317 165.719C188.467 165.455 188.542 165.164 188.542 164.846C188.542 164.522 188.47 164.234 188.326 163.982C188.182 163.73 187.984 163.535 187.732 163.397C187.486 163.253 187.204 163.181 186.886 163.181C186.574 163.181 186.292 163.256 186.04 163.406C185.794 163.55 185.596 163.748 185.446 164C185.302 164.252 185.23 164.537 185.23 164.855C185.23 165.179 185.302 165.47 185.446 165.728C185.596 165.986 185.797 166.19 186.049 166.34C186.301 166.49 186.583 166.565 186.895 166.565Z" fill="#F5F5F5"/>
</g>
<g filter="url(#filter8_d_952_2)">
<path d="M161.621 64.4443C161.621 65.5951 161.382 66.592 160.903 67.4351C160.425 68.2782 159.776 68.9674 158.955 69.5029C158.146 70.0384 157.235 70.4315 156.221 70.6821V70.7847C158.226 71.0353 159.747 71.6506 160.784 72.6304C161.832 73.6102 162.356 74.9204 162.356 76.561C162.356 78.0194 161.997 79.3239 161.279 80.4746C160.573 81.6253 159.479 82.5311 157.998 83.1919C156.517 83.8527 154.609 84.1831 152.273 84.1831C150.895 84.1831 149.607 84.0692 148.411 83.8413C147.226 83.6248 146.109 83.2887 145.061 82.833V78.3384C146.132 78.8853 147.254 79.3011 148.428 79.5859C149.601 79.8594 150.695 79.9961 151.709 79.9961C153.6 79.9961 154.922 79.6714 155.674 79.022C156.437 78.3612 156.819 77.4383 156.819 76.2534C156.819 75.5584 156.642 74.9717 156.289 74.4932C155.936 74.0146 155.321 73.6501 154.444 73.3994C153.578 73.1488 152.364 73.0234 150.803 73.0234H148.906V68.9731H150.838C152.376 68.9731 153.543 68.8307 154.341 68.5459C155.15 68.2497 155.697 67.8509 155.982 67.3496C156.278 66.8369 156.426 66.2559 156.426 65.6064C156.426 64.7178 156.152 64.0228 155.606 63.5215C155.059 63.0202 154.147 62.7695 152.871 62.7695C152.074 62.7695 151.345 62.8721 150.684 63.0771C150.034 63.2708 149.448 63.5101 148.923 63.7949C148.399 64.0684 147.938 64.3361 147.539 64.5981L145.095 60.958C146.075 60.2516 147.22 59.6649 148.53 59.1978C149.852 58.7306 151.424 58.4971 153.247 58.4971C155.822 58.4971 157.861 59.0155 159.365 60.0522C160.869 61.089 161.621 62.5531 161.621 64.4443ZM182.522 69.52C182.522 70.9556 182.414 72.3797 182.197 73.7925C181.992 75.2052 181.628 76.5382 181.104 77.7915C180.58 79.0334 179.845 80.1385 178.899 81.1069C177.953 82.064 176.751 82.8159 175.293 83.3628C173.835 83.9097 172.069 84.1831 169.995 84.1831C169.505 84.1831 168.93 84.1603 168.269 84.1147C167.608 84.0806 167.062 84.0236 166.629 83.9438V79.7056C167.084 79.8195 167.569 79.9106 168.081 79.979C168.594 80.036 169.112 80.0645 169.636 80.0645C171.721 80.0645 173.328 79.734 174.456 79.0732C175.595 78.4124 176.393 77.4953 176.848 76.3218C177.315 75.1483 177.583 73.7925 177.652 72.2544H177.446C177.116 72.8013 176.723 73.2969 176.267 73.7412C175.823 74.1742 175.253 74.5216 174.558 74.7837C173.863 75.0343 172.98 75.1597 171.909 75.1597C170.485 75.1597 169.243 74.8521 168.184 74.2368C167.136 73.6102 166.321 72.7101 165.74 71.5366C165.17 70.3517 164.885 68.9219 164.885 67.2471C164.885 65.4355 165.227 63.8861 165.911 62.5986C166.606 61.2998 167.591 60.3029 168.867 59.6079C170.143 58.9129 171.647 58.5654 173.379 58.5654C174.655 58.5654 175.846 58.7876 176.951 59.2319C178.056 59.6649 179.024 60.3314 179.856 61.2314C180.699 62.1315 181.354 63.2708 181.821 64.6494C182.289 66.028 182.522 67.6515 182.522 69.52ZM173.482 62.8037C172.456 62.8037 171.619 63.1569 170.969 63.8633C170.32 64.5697 169.995 65.6748 169.995 67.1787C169.995 68.3864 170.274 69.3434 170.833 70.0498C171.391 70.7562 172.24 71.1094 173.379 71.1094C174.165 71.1094 174.849 70.9385 175.43 70.5967C176.011 70.2435 176.461 69.8049 176.78 69.2808C177.11 68.7453 177.276 68.1984 177.276 67.6401C177.276 67.0591 177.196 66.4837 177.036 65.9141C176.877 65.3444 176.638 64.826 176.319 64.3589C175.999 63.8918 175.601 63.5158 175.122 63.231C174.655 62.9461 174.108 62.8037 173.482 62.8037ZM187.039 82.0981L187.149 82.2666C187.061 82.6182 186.946 82.9966 186.804 83.4019C186.668 83.8071 186.516 84.2124 186.35 84.6177C186.189 85.0229 186.026 85.4087 185.86 85.7749H184.248C184.346 85.3794 184.441 84.9644 184.534 84.5298C184.627 84.0952 184.712 83.668 184.79 83.248C184.873 82.8281 184.939 82.4448 184.988 82.0981H187.039ZM196.106 77.7036C196.106 78.3188 196.06 78.9292 195.967 79.5347C195.879 80.1401 195.723 80.7114 195.498 81.2485C195.274 81.7808 194.959 82.2544 194.553 82.6694C194.148 83.0796 193.633 83.4019 193.008 83.6362C192.383 83.8706 191.626 83.9878 190.737 83.9878C190.527 83.9878 190.281 83.978 189.998 83.9585C189.715 83.9438 189.48 83.9194 189.295 83.8853V82.0688C189.49 82.1177 189.697 82.1567 189.917 82.186C190.137 82.2104 190.359 82.2227 190.584 82.2227C191.477 82.2227 192.166 82.0811 192.649 81.7979C193.137 81.5146 193.479 81.1216 193.674 80.6187C193.875 80.1157 193.989 79.5347 194.019 78.8755H193.931C193.789 79.1099 193.621 79.3223 193.425 79.5127C193.235 79.6982 192.991 79.8472 192.693 79.9595C192.395 80.0669 192.017 80.1206 191.558 80.1206C190.947 80.1206 190.415 79.9888 189.961 79.7251C189.512 79.4565 189.163 79.0708 188.914 78.5679C188.67 78.0601 188.548 77.4473 188.548 76.7295C188.548 75.9531 188.694 75.2891 188.987 74.7373C189.285 74.1807 189.707 73.7534 190.254 73.4556C190.801 73.1577 191.445 73.0088 192.188 73.0088C192.735 73.0088 193.245 73.104 193.718 73.2944C194.192 73.48 194.607 73.7656 194.964 74.1514C195.325 74.5371 195.606 75.0254 195.806 75.6162C196.006 76.207 196.106 76.9028 196.106 77.7036ZM192.232 74.8252C191.792 74.8252 191.433 74.9766 191.155 75.2793C190.877 75.582 190.737 76.0557 190.737 76.7002C190.737 77.2178 190.857 77.6279 191.096 77.9307C191.336 78.2334 191.699 78.3848 192.188 78.3848C192.525 78.3848 192.818 78.3115 193.067 78.165C193.316 78.0137 193.508 77.8257 193.645 77.6011C193.787 77.3716 193.858 77.1372 193.858 76.8979C193.858 76.6489 193.823 76.4023 193.755 76.1582C193.687 75.9141 193.584 75.6919 193.447 75.4917C193.311 75.2915 193.14 75.1304 192.935 75.0083C192.735 74.8862 192.5 74.8252 192.232 74.8252ZM204.675 78.4873C204.675 79.3516 204.607 80.123 204.47 80.8018C204.339 81.4805 204.124 82.0566 203.826 82.5303C203.533 83.0039 203.147 83.3652 202.669 83.6143C202.19 83.8633 201.609 83.9878 200.925 83.9878C200.066 83.9878 199.361 83.7705 198.809 83.3359C198.257 82.8965 197.849 82.2666 197.586 81.4463C197.322 80.6211 197.19 79.6348 197.19 78.4873C197.19 77.3301 197.31 76.3413 197.549 75.521C197.793 74.6958 198.189 74.0635 198.736 73.624C199.282 73.1846 200.012 72.9648 200.925 72.9648C201.78 72.9648 202.483 73.1846 203.035 73.624C203.591 74.0586 204.004 74.6885 204.273 75.5137C204.541 76.334 204.675 77.3252 204.675 78.4873ZM199.439 78.4873C199.439 79.3027 199.483 79.9839 199.57 80.5308C199.663 81.0728 199.817 81.4805 200.032 81.7539C200.247 82.0273 200.545 82.1641 200.925 82.1641C201.301 82.1641 201.597 82.0298 201.812 81.7612C202.031 81.4878 202.188 81.0801 202.28 80.5381C202.373 79.9912 202.42 79.3076 202.42 78.4873C202.42 77.6719 202.373 76.9907 202.28 76.4438C202.188 75.897 202.031 75.4868 201.812 75.2134C201.597 74.9351 201.301 74.7959 200.925 74.7959C200.545 74.7959 200.247 74.9351 200.032 75.2134C199.817 75.4868 199.663 75.897 199.57 76.4438C199.483 76.9907 199.439 77.6719 199.439 78.4873Z" fill="#F5F5F5"/>
</g>
<g filter="url(#filter9_d_952_2)">
<path d="M118.764 84.0783C118.612 84.0783 118.496 84.0543 118.416 84.0063C118.336 83.9663 118.284 83.9063 118.26 83.8263C118.244 83.7383 118.236 83.6383 118.236 83.5263V76.2303C118.236 76.1263 118.248 76.0383 118.272 75.9663C118.304 75.8863 118.356 75.8223 118.428 75.7743C118.508 75.7263 118.624 75.7023 118.776 75.7023H121.428C121.82 75.7023 122.176 75.7623 122.496 75.8823C122.824 75.9943 123.108 76.1623 123.348 76.3863C123.588 76.6103 123.772 76.8943 123.9 77.2383C124.036 77.5743 124.104 77.9663 124.104 78.4143C124.104 78.6943 124.06 78.9863 123.972 79.2903C123.884 79.5863 123.748 79.8663 123.564 80.1303C123.388 80.3943 123.16 80.6143 122.88 80.7903C122.6 80.9663 122.26 81.0663 121.86 81.0903H119.316V83.5383C119.316 83.6503 119.3 83.7463 119.268 83.8263C119.244 83.9063 119.192 83.9663 119.112 84.0063C119.04 84.0543 118.924 84.0783 118.764 84.0783ZM123.912 83.9463C123.744 84.0583 123.6 84.0943 123.48 84.0543C123.368 84.0143 123.26 83.9183 123.156 83.7663L121.236 80.6943L122.424 80.5143L124.08 83.1543C124.16 83.2823 124.208 83.3903 124.224 83.4783C124.248 83.5663 124.232 83.6463 124.176 83.7183C124.128 83.7903 124.04 83.8663 123.912 83.9463ZM119.316 80.0343H121.692C121.876 80.0343 122.048 80.0023 122.208 79.9383C122.368 79.8663 122.508 79.7623 122.628 79.6263C122.748 79.4903 122.844 79.3223 122.916 79.1223C122.988 78.9223 123.024 78.6823 123.024 78.4023C123.024 78.0583 122.96 77.7663 122.832 77.5263C122.712 77.2863 122.532 77.1063 122.292 76.9863C122.052 76.8583 121.756 76.7943 121.404 76.7943H119.316V80.0343ZM129.756 81.5223C129.756 81.7863 129.712 82.0303 129.624 82.2543C129.536 82.4783 129.408 82.6743 129.24 82.8423C129.072 83.0023 128.872 83.1343 128.64 83.2383C128.408 83.3423 128.148 83.4143 127.86 83.4543V84.3543C127.86 84.4583 127.848 84.5463 127.824 84.6183C127.8 84.6983 127.756 84.7543 127.692 84.7863C127.628 84.8263 127.532 84.8463 127.404 84.8463C127.276 84.8463 127.18 84.8263 127.116 84.7863C127.052 84.7463 127.008 84.6863 126.984 84.6063C126.968 84.5343 126.96 84.4463 126.96 84.3423V83.4423C126.736 83.4103 126.516 83.3503 126.3 83.2623C126.092 83.1663 125.904 83.0503 125.736 82.9143C125.576 82.7783 125.44 82.6303 125.328 82.4703C125.24 82.3263 125.192 82.2023 125.184 82.0983C125.176 81.9943 125.248 81.8783 125.4 81.7503C125.52 81.6623 125.624 81.6183 125.712 81.6183C125.8 81.6183 125.884 81.6503 125.964 81.7143C126.044 81.7783 126.116 81.8583 126.18 81.9543C126.308 82.1463 126.476 82.2943 126.684 82.3983C126.9 82.5023 127.132 82.5543 127.38 82.5543C127.676 82.5543 127.928 82.5143 128.136 82.4343C128.344 82.3543 128.5 82.2423 128.604 82.0983C128.716 81.9463 128.772 81.7623 128.772 81.5463C128.772 81.2983 128.692 81.1023 128.532 80.9583C128.372 80.8143 128.16 80.6943 127.896 80.5983C127.64 80.4943 127.368 80.3903 127.08 80.2863C126.864 80.2063 126.652 80.1183 126.444 80.0223C126.236 79.9263 126.048 79.8103 125.88 79.6743C125.712 79.5303 125.58 79.3583 125.484 79.1583C125.388 78.9583 125.34 78.7103 125.34 78.4143C125.34 78.1743 125.376 77.9543 125.448 77.7543C125.52 77.5543 125.628 77.3783 125.772 77.2263C125.916 77.0743 126.088 76.9503 126.288 76.8543C126.488 76.7503 126.712 76.6823 126.96 76.6503V75.8103C126.96 75.7063 126.968 75.6183 126.984 75.5463C127.008 75.4663 127.052 75.4063 127.116 75.3663C127.18 75.3263 127.276 75.3063 127.404 75.3063C127.532 75.3063 127.628 75.3263 127.692 75.3663C127.756 75.4063 127.8 75.4623 127.824 75.5343C127.848 75.6063 127.86 75.6943 127.86 75.7983V76.6383C128.164 76.6783 128.428 76.7663 128.652 76.9023C128.884 77.0303 129.072 77.1663 129.216 77.3103C129.344 77.4303 129.412 77.5383 129.42 77.6343C129.428 77.7223 129.376 77.8343 129.264 77.9703C129.2 78.0583 129.128 78.1223 129.048 78.1623C128.976 78.1943 128.9 78.2023 128.82 78.1863C128.748 78.1623 128.668 78.1103 128.58 78.0303C128.492 77.9423 128.384 77.8623 128.256 77.7903C128.128 77.7183 127.992 77.6623 127.848 77.6223C127.704 77.5743 127.552 77.5503 127.392 77.5503C127.224 77.5503 127.072 77.5703 126.936 77.6103C126.8 77.6503 126.684 77.7103 126.588 77.7903C126.5 77.8623 126.428 77.9543 126.372 78.0663C126.324 78.1703 126.3 78.2903 126.3 78.4263C126.3 78.6343 126.368 78.8023 126.504 78.9303C126.648 79.0583 126.832 79.1663 127.056 79.2543C127.28 79.3423 127.52 79.4263 127.776 79.5063C128.008 79.5863 128.24 79.6743 128.472 79.7703C128.704 79.8663 128.916 79.9863 129.108 80.1303C129.308 80.2743 129.464 80.4583 129.576 80.6823C129.696 80.9063 129.756 81.1863 129.756 81.5223Z" fill="#8E7DE4"/>
</g>
<defs>
<filter id="filter0_d_952_2" x="18.4697" y="57.7791" width="304.53" height="391.09" filterUnits="userSpaceOnUse" color-interpolation-filters="sRGB">
<feFlood flood-opacity="0" result="BackgroundImageFix"/>
<feColorMatrix in="SourceAlpha" type="matrix" values="0 0 0 0 0 0 0 0 0 0 0 0 0 0 0 0 0 0 127 0" result="hardAlpha"/>
<feOffset dx="4" dy="4"/>
<feGaussianBlur stdDeviation="5"/>
<feComposite in2="hardAlpha" operator="out"/>
<feColorMatrix type="matrix" values="0 0 0 0 0 0 0 0 0 0 0 0 0 0 0 0 0 0 0.3 0"/>
<feBlend mode="normal" in2="BackgroundImageFix" result="effect1_dropShadow_952_2"/>
<feBlend mode="normal" in="SourceGraphic" in2="effect1_dropShadow_952_2" result="shape"/>
</filter>
<filter id="filter1_d_952_2" x="40.9868" y="190.075" width="253.355" height="362.809" filterUnits="userSpaceOnUse" color-interpolation-filters="sRGB">
<feFlood flood-opacity="0" result="BackgroundImageFix"/>
<feColorMatrix in="SourceAlpha" type="matrix" values="0 0 0 0 0 0 0 0 0 0 0 0 0 0 0 0 0 0 127 0" result="hardAlpha"/>
<feOffset dx="4" dy="4"/>
<feGaussianBlur stdDeviation="5"/>
<feComposite in2="hardAlpha" operator="out"/>
<feColorMatrix type="matrix" values="0 0 0 0 0 0 0 0 0 0 0 0 0 0 0 0 0 0 0.3 0"/>
<feBlend mode="normal" in2="BackgroundImageFix" result="effect1_dropShadow_952_2"/>
<feBlend mode="normal" in="SourceGraphic" in2="effect1_dropShadow_952_2" result="shape"/>
</filter>
<filter id="filter2_d_952_2" x="98.1665" y="1.948" width="139.183" height="142.086" filterUnits="userSpaceOnUse" color-interpolation-filters="sRGB">
<feFlood flood-opacity="0" result="BackgroundImageFix"/>
<feColorMatrix in="SourceAlpha" type="matrix" values="0 0 0 0 0 0 0 0 0 0 0 0 0 0 0 0 0 0 127 0" result="hardAlpha"/>
<feOffset dy="4"/>
<feGaussianBlur stdDeviation="2"/>
<feComposite in2="hardAlpha" operator="out"/>
<feColorMatrix type="matrix" values="0 0 0 0 0 0 0 0 0 0 0 0 0 0 0 0 0 0 0.25 0"/>
<feBlend mode="normal" in2="BackgroundImageFix" result="effect1_dropShadow_952_2"/>
<feBlend mode="normal" in="SourceGraphic" in2="effect1_dropShadow_952_2" result="shape"/>
</filter>
<filter id="filter3_d_952_2" x="0" y="142.853" width="235.215" height="43.481" filterUnits="userSpaceOnUse" color-interpolation-filters="sRGB">
<feFlood flood-opacity="0" result="BackgroundImageFix"/>
<feColorMatrix in="SourceAlpha" type="matrix" values="0 0 0 0 0 0 0 0 0 0 0 0 0 0 0 0 0 0 127 0" result="hardAlpha"/>
<feOffset dy="4"/>
<feGaussianBlur stdDeviation="2"/>
<feComposite in2="hardAlpha" operator="out"/>
<feColorMatrix type="matrix" values="0 0 0 0 0 0 0 0 0 0 0 0 0 0 0 0 0 0 0.25 0"/>
<feBlend mode="normal" in2="BackgroundImageFix" result="effect1_dropShadow_952_2"/>
<feBlend mode="normal" in="SourceGraphic" in2="effect1_dropShadow_952_2" result="shape"/>
</filter>
<filter id="filter4_d_952_2" x="212.886" y="452.326" width="87.832" height="37.5674" filterUnits="userSpaceOnUse" color-interpolation-filters="sRGB">
<feFlood flood-opacity="0" result="BackgroundImageFix"/>
<feColorMatrix in="SourceAlpha" type="matrix" values="0 0 0 0 0 0 0 0 0 0 0 0 0 0 0 0 0 0 127 0" result="hardAlpha"/>
<feOffset dy="4"/>
<feGaussianBlur stdDeviation="2"/>
<feComposite in2="hardAlpha" operator="out"/>
<feColorMatrix type="matrix" values="0 0 0 0 0 0 0 0 0 0 0 0 0 0 0 0 0 0 0.25 0"/>
<feBlend mode="normal" in2="BackgroundImageFix" result="effect1_dropShadow_952_2"/>
<feBlend mode="normal" in="SourceGraphic" in2="effect1_dropShadow_952_2" result="shape"/>
</filter>
<filter id="filter5_d_952_2" x="62.7441" y="147.416" width="76.1353" height="23.76" filterUnits="userSpaceOnUse" color-interpolation-filters="sRGB">
<feFlood flood-opacity="0" result="BackgroundImageFix"/>
<feColorMatrix in="SourceAlpha" type="matrix" values="0 0 0 0 0 0 0 0 0 0 0 0 0 0 0 0 0 0 127 0" result="hardAlpha"/>
<feOffset dx="2" dy="2"/>
<feGaussianBlur stdDeviation="2"/>
<feComposite in2="hardAlpha" operator="out"/>
<feColorMatrix type="matrix" values="0 0 0 0 0 0 0 0 0 0 0 0 0 0 0 0 0 0 0.25 0"/>
<feBlend mode="normal" in2="BackgroundImageFix" result="effect1_dropShadow_952_2"/>
<feBlend mode="normal" in="SourceGraphic" in2="effect1_dropShadow_952_2" result="shape"/>
</filter>
<filter id="filter6_d_952_2" x="237.188" y="460.821" width="43.2017" height="16.4719" filterUnits="userSpaceOnUse" color-interpolation-filters="sRGB">
<feFlood flood-opacity="0" result="BackgroundImageFix"/>
<feColorMatrix in="SourceAlpha" type="matrix" values="0 0 0 0 0 0 0 0 0 0 0 0 0 0 0 0 0 0 127 0" result="hardAlpha"/>
<feOffset dx="2" dy="2"/>
<feGaussianBlur stdDeviation="2"/>
<feComposite in2="hardAlpha" operator="out"/>
<feColorMatrix type="matrix" values="0 0 0 0 0 0 0 0 0 0 0 0 0 0 0 0 0 0 0.25 0"/>
<feBlend mode="normal" in2="BackgroundImageFix" result="effect1_dropShadow_952_2"/>
<feBlend mode="normal" in="SourceGraphic" in2="effect1_dropShadow_952_2" result="shape"/>
</filter>
<filter id="filter7_d_952_2" x="147.67" y="152.652" width="47.3765" height="20.3989" filterUnits="userSpaceOnUse" color-interpolation-filters="sRGB">
<feFlood flood-opacity="0" result="BackgroundImageFix"/>
<feColorMatrix in="SourceAlpha" type="matrix" values="0 0 0 0 0 0 0 0 0 0 0 0 0 0 0 0 0 0 127 0" result="hardAlpha"/>
<feOffset dx="2" dy="2"/>
<feGaussianBlur stdDeviation="2"/>
<feComposite in2="hardAlpha" operator="out"/>
<feColorMatrix type="matrix" values="0 0 0 0 0 0 0 0 0 0 0 0 0 0 0 0 0 0 0.25 0"/>
<feBlend mode="normal" in2="BackgroundImageFix" result="effect1_dropShadow_952_2"/>
<feBlend mode="normal" in="SourceGraphic" in2="effect1_dropShadow_952_2" result="shape"/>
</filter>
<filter id="filter8_d_952_2" x="141.061" y="58.4971" width="67.6143" height="35.2778" filterUnits="userSpaceOnUse" color-interpolation-filters="sRGB">
<feFlood flood-opacity="0" result="BackgroundImageFix"/>
<feColorMatrix in="SourceAlpha" type="matrix" values="0 0 0 0 0 0 0 0 0 0 0 0 0 0 0 0 0 0 127 0" result="hardAlpha"/>
<feOffset dy="4"/>
<feGaussianBlur stdDeviation="2"/>
<feComposite in2="hardAlpha" operator="out"/>
<feColorMatrix type="matrix" values="0 0 0 0 0 0 0 0 0 0 0 0 0 0 0 0 0 0 0.25 0"/>
<feBlend mode="normal" in2="BackgroundImageFix" result="effect1_dropShadow_952_2"/>
<feBlend mode="normal" in="SourceGraphic" in2="effect1_dropShadow_952_2" result="shape"/>
</filter>
<filter id="filter9_d_952_2" x="114.236" y="75.3062" width="19.52" height="17.54" filterUnits="userSpaceOnUse" color-interpolation-filters="sRGB">
<feFlood flood-opacity="0" result="BackgroundImageFix"/>
<feColorMatrix in="SourceAlpha" type="matrix" values="0 0 0 0 0 0 0 0 0 0 0 0 0 0 0 0 0 0 127 0" result="hardAlpha"/>
<feOffset dy="4"/>
<feGaussianBlur stdDeviation="2"/>
<feComposite in2="hardAlpha" operator="out"/>
<feColorMatrix type="matrix" values="0 0 0 0 0 0 0 0 0 0 0 0 0 0 0 0 0 0 0.25 0"/>
<feBlend mode="normal" in2="BackgroundImageFix" result="effect1_dropShadow_952_2"/>
<feBlend mode="normal" in="SourceGraphic" in2="effect1_dropShadow_952_2" result="shape"/>
</filter>
<linearGradient id="paint0_linear_952_2" x1="28.5064" y1="192.124" x2="19.955" y2="171.983" gradientUnits="userSpaceOnUse">
<stop stop-color="#7A8AD5"/>
<stop offset="1" stop-color="#160727"/>
</linearGradient>
<linearGradient id="paint1_linear_952_2" x1="104.462" y1="21.19" x2="198.312" y2="128.511" gradientUnits="userSpaceOnUse">
<stop stop-color="#42215A"/>
<stop offset="1" stop-color="#8E7DE4"/>
</linearGradient>
<linearGradient id="paint2_linear_952_2" x1="4" y1="142.853" x2="265.868" y2="177.942" gradientUnits="userSpaceOnUse">
<stop stop-color="#42215A"/>
<stop offset="1" stop-color="#8E7DE4"/>
</linearGradient>
<linearGradient id="paint3_linear_952_2" x1="298.765" y1="480.908" x2="234.061" y2="497.144" gradientUnits="userSpaceOnUse">
<stop stop-color="#43235D"/>
<stop offset="1" stop-color="#8E7DE4"/>
</linearGradient>
</defs>
</svg>
