<svg width="322" height="542" viewBox="0 0 322 542" fill="none" xmlns="http://www.w3.org/2000/svg">
<path d="M25.8445 175.927L25.4468 188.303L3.99992 176.47L25.8445 175.927Z" fill="url(#paint0_linear_952_3)"/>
<g filter="url(#filter0_d_952_3)">
<path d="M165.022 59.9853C167.186 59.2306 169.543 59.242 171.699 60.0174L301.384 106.653C305.353 108.08 308 111.845 308 116.063V411.221C308 418.266 300.911 423.102 294.352 420.532L30.7552 317.266C26.9237 315.765 24.4028 312.07 24.4028 307.955L24.4031 116.135C24.4031 111.882 27.0936 108.094 31.1097 106.693L165.022 59.9853Z" fill="#545454"/>
</g>
<g filter="url(#filter1_d_952_3)">
<path d="M167.964 193.767L269.436 193.767C274.959 193.767 279.436 198.244 279.436 203.767V517.978C279.436 524.846 272.672 529.669 266.179 527.432L53.5884 454.183C49.5539 452.793 46.846 448.996 46.846 444.729L46.8457 203.767C46.8457 198.244 51.3229 193.767 56.8457 193.767L167.964 193.767Z" fill="#F5F5F5"/>
</g>
<g filter="url(#filter2_d_952_3)">
<path d="M160.36 3.52984C164.666 1.31458 169.777 1.31458 174.084 3.52983L224.46 29.4446C229.457 32.0153 232.598 37.1635 232.598 42.7832V91.7415C232.598 97.3611 229.457 102.509 224.46 105.08L174.084 130.995C169.777 133.21 164.666 133.21 160.36 130.995L109.984 105.08C104.987 102.509 101.846 97.3611 101.846 91.7415V42.7832C101.846 37.1635 104.987 32.0153 109.984 29.4446L160.36 3.52984Z" fill="#545454"/>
<path d="M172.254 7.08678L222.63 33.0016C226.294 34.8867 228.598 38.6621 228.598 42.7832V91.7415C228.598 95.8625 226.295 99.6379 222.63 101.523L172.254 127.438C169.096 129.062 165.348 129.062 162.19 127.438L111.814 101.523C108.149 99.6379 105.846 95.8625 105.846 91.7415V42.7832C105.846 38.6621 108.149 34.8867 111.814 33.0016L162.19 7.08678C165.348 5.46226 169.096 5.46226 172.254 7.08678Z" stroke="url(#paint1_linear_952_3)" stroke-width="8"/>
</g>
<g filter="url(#filter3_d_952_3)">
<path d="M4.00049 151.878C4.00049 146.355 8.47764 141.878 14.0005 141.878H213.174C222.726 141.878 230.47 149.621 230.47 159.174V159.174C230.47 168.726 222.726 176.47 213.174 176.47H4.00049V151.878Z" fill="url(#paint2_linear_952_3)"/>
</g>
<g filter="url(#filter4_d_952_3)">
<path d="M295.759 472.425H230.602C222.641 472.425 216.188 465.972 216.188 458.011V458.011C216.188 450.051 222.641 443.598 230.602 443.598H288.759C292.625 443.598 295.759 446.732 295.759 450.598V472.425Z" fill="url(#paint3_linear_952_3)"/>
</g>
<g filter="url(#filter5_d_952_3)">
<path d="M150.468 95.3592C150.534 95.4012 150.579 95.4402 150.603 95.4762C150.627 95.5122 150.63 95.5572 150.612 95.6112C150.6 95.6592 150.561 95.7252 150.495 95.8092L147.66 99.5082C147.6 99.5862 147.549 99.6372 147.507 99.6612C147.465 99.6912 147.426 99.7002 147.39 99.6882C147.354 99.6822 147.312 99.6642 147.264 99.6342C147.21 99.5922 147.171 99.5562 147.147 99.5262C147.123 99.4902 147.12 99.4482 147.138 99.4002C147.162 99.3462 147.204 99.2772 147.264 99.1932L150.099 95.4942C150.183 95.3862 150.246 95.3262 150.288 95.3142C150.33 95.2962 150.39 95.3112 150.468 95.3592ZM147.282 95.3592C147.336 95.3292 147.381 95.3112 147.417 95.3052C147.453 95.2992 147.486 95.3112 147.516 95.3412C147.552 95.3712 147.597 95.4222 147.651 95.4942L150.486 99.1932C150.552 99.2772 150.594 99.3462 150.612 99.4002C150.63 99.4482 150.627 99.4902 150.603 99.5262C150.585 99.5562 150.546 99.5922 150.486 99.6342C150.438 99.6642 150.396 99.6822 150.36 99.6882C150.324 99.7002 150.285 99.6912 150.243 99.6612C150.201 99.6372 150.15 99.5862 150.09 99.5082L147.255 95.8092C147.195 95.7252 147.156 95.6562 147.138 95.6022C147.12 95.5482 147.123 95.5032 147.147 95.4672C147.171 95.4312 147.216 95.3952 147.282 95.3592ZM153.83 99.6522C153.734 99.6522 153.668 99.6312 153.632 99.5892C153.596 99.5472 153.578 99.4782 153.578 99.3822V93.6312C153.578 93.5292 153.596 93.4602 153.632 93.4242C153.674 93.3882 153.743 93.3702 153.839 93.3702C153.935 93.3702 154.001 93.3912 154.037 93.4332C154.073 93.4752 154.091 93.5472 154.091 93.6492V99.3912C154.091 99.4872 154.073 99.5532 154.037 99.5892C154.001 99.6312 153.932 99.6522 153.83 99.6522ZM151.967 95.5392C151.889 95.6052 151.823 95.6382 151.769 95.6382C151.721 95.6382 151.664 95.5992 151.598 95.5212C151.538 95.4492 151.511 95.3862 151.517 95.3322C151.523 95.2782 151.565 95.2182 151.643 95.1522L153.578 93.4692C153.65 93.4032 153.713 93.3732 153.767 93.3792C153.821 93.3852 153.881 93.4242 153.947 93.4962C154.013 93.5622 154.043 93.6252 154.037 93.6852C154.031 93.7392 153.986 93.7992 153.902 93.8652L151.967 95.5392ZM155.355 99.5532C155.295 99.5532 155.235 99.5262 155.175 99.4722C155.121 99.4122 155.094 99.3462 155.094 99.2742C155.094 99.1962 155.091 99.1182 155.085 99.0402C155.085 98.9622 155.1 98.8842 155.13 98.8062C155.166 98.7282 155.238 98.6532 155.346 98.5812C155.736 98.3232 156.102 98.0832 156.444 97.8612C156.792 97.6392 157.107 97.4262 157.389 97.2222C157.671 97.0122 157.911 96.8052 158.109 96.6012C158.313 96.3912 158.469 96.1752 158.577 95.9532C158.685 95.7312 158.739 95.4912 158.739 95.2332C158.739 94.9272 158.676 94.6722 158.55 94.4682C158.43 94.2582 158.253 94.1022 158.019 94.0002C157.791 93.8922 157.515 93.8382 157.191 93.8382C156.945 93.8382 156.726 93.8742 156.534 93.9462C156.342 94.0182 156.177 94.1262 156.039 94.2702C155.907 94.4082 155.805 94.5792 155.733 94.7832C155.661 94.9812 155.625 95.2062 155.625 95.4582C155.625 95.5362 155.619 95.5962 155.607 95.6382C155.595 95.6802 155.571 95.7102 155.535 95.7282C155.499 95.7402 155.439 95.7462 155.355 95.7462C155.265 95.7462 155.202 95.7312 155.166 95.7012C155.13 95.6712 155.109 95.6292 155.103 95.5752C155.097 95.5212 155.094 95.4582 155.094 95.3862C155.094 95.0622 155.139 94.7712 155.229 94.5132C155.325 94.2552 155.463 94.0362 155.643 93.8562C155.823 93.6762 156.042 93.5412 156.3 93.4512C156.558 93.3552 156.852 93.3072 157.182 93.3072C157.62 93.3072 157.995 93.3792 158.307 93.5232C158.619 93.6672 158.859 93.8862 159.027 94.1802C159.195 94.4742 159.279 94.8462 159.279 95.2962C159.279 95.4702 159.255 95.6412 159.207 95.8092C159.159 95.9772 159.084 96.1452 158.982 96.3132C158.88 96.4752 158.751 96.6402 158.595 96.8082C158.439 96.9762 158.253 97.1502 158.037 97.3302C157.827 97.5102 157.584 97.6992 157.308 97.8972C157.032 98.0892 156.726 98.2932 156.39 98.5092L155.607 99.0132H159.306C159.372 99.0132 159.423 99.0222 159.459 99.0402C159.501 99.0582 159.528 99.0882 159.54 99.1302C159.558 99.1662 159.567 99.2202 159.567 99.2922C159.567 99.3582 159.558 99.4122 159.54 99.4542C159.522 99.4902 159.492 99.5172 159.45 99.5352C159.414 99.5472 159.36 99.5532 159.288 99.5532H155.355ZM163.322 99.6432C163.262 99.6432 163.214 99.6342 163.178 99.6162C163.142 99.5982 163.115 99.5712 163.097 99.5352C163.085 99.4932 163.079 99.4392 163.079 99.3732V95.5932C163.079 95.5332 163.085 95.4882 163.097 95.4582C163.115 95.4222 163.142 95.3982 163.178 95.3862C163.22 95.3682 163.271 95.3592 163.331 95.3592C163.415 95.3592 163.475 95.3772 163.511 95.4132C163.547 95.4492 163.565 95.5092 163.565 95.5932V96.1332C163.619 96.0072 163.694 95.8962 163.79 95.8002C163.892 95.7042 164.006 95.6232 164.132 95.5572C164.258 95.4852 164.387 95.4312 164.519 95.3952C164.657 95.3592 164.789 95.3412 164.915 95.3412C165.131 95.3412 165.323 95.3832 165.491 95.4672C165.665 95.5512 165.818 95.6712 165.95 95.8272C166.082 95.9772 166.193 96.1632 166.283 96.3852C166.421 96.1452 166.559 95.9502 166.697 95.8002C166.841 95.6442 167 95.5302 167.174 95.4582C167.354 95.3802 167.555 95.3412 167.777 95.3412C168.119 95.3412 168.401 95.4252 168.623 95.5932C168.851 95.7612 169.022 95.9952 169.136 96.2952C169.25 96.5952 169.307 96.9492 169.307 97.3572V99.3822C169.307 99.4482 169.298 99.5022 169.28 99.5442C169.268 99.5802 169.244 99.6042 169.208 99.6162C169.172 99.6342 169.121 99.6432 169.055 99.6432C168.989 99.6432 168.935 99.6342 168.893 99.6162C168.857 99.5982 168.83 99.5712 168.812 99.5352C168.8 99.4932 168.794 99.4392 168.794 99.3732V97.3482C168.794 97.0422 168.755 96.7752 168.677 96.5472C168.605 96.3132 168.494 96.1332 168.344 96.0072C168.194 95.8752 167.999 95.8092 167.759 95.8092C167.507 95.8092 167.282 95.8752 167.084 96.0072C166.886 96.1332 166.73 96.3132 166.616 96.5472C166.502 96.7752 166.445 97.0422 166.445 97.3482V99.3912C166.445 99.4692 166.424 99.5292 166.382 99.5712C166.346 99.6192 166.298 99.6462 166.238 99.6522C166.184 99.6642 166.133 99.6582 166.085 99.6342C166.049 99.6222 166.019 99.6042 165.995 99.5802C165.971 99.5622 165.953 99.5352 165.941 99.4992C165.935 99.4632 165.932 99.4212 165.932 99.3732V97.3482C165.932 97.0422 165.893 96.7752 165.815 96.5472C165.743 96.3132 165.632 96.1332 165.482 96.0072C165.332 95.8752 165.137 95.8092 164.897 95.8092C164.645 95.8092 164.42 95.8752 164.222 96.0072C164.024 96.1332 163.868 96.3132 163.754 96.5472C163.64 96.7752 163.583 97.0422 163.583 97.3482V99.3822C163.583 99.4482 163.574 99.5022 163.556 99.5442C163.544 99.5802 163.517 99.6042 163.475 99.6162C163.439 99.6342 163.388 99.6432 163.322 99.6432ZM172.564 99.6702C172.234 99.6702 171.931 99.6162 171.655 99.5082C171.385 99.4002 171.151 99.2472 170.953 99.0492C170.761 98.8512 170.611 98.6172 170.503 98.3472C170.395 98.0772 170.341 97.7772 170.341 97.4472C170.341 97.0572 170.434 96.7062 170.62 96.3942C170.806 96.0822 171.064 95.8362 171.394 95.6562C171.724 95.4702 172.102 95.3772 172.528 95.3772C172.804 95.3772 173.056 95.4192 173.284 95.5032C173.512 95.5872 173.71 95.7012 173.878 95.8452C174.046 95.9892 174.175 96.1542 174.265 96.3402C174.361 96.5262 174.409 96.7182 174.409 96.9162C174.409 97.2102 174.34 97.4112 174.202 97.5192C174.07 97.6212 173.908 97.6722 173.716 97.6722H170.881C170.869 97.9902 170.947 98.2632 171.115 98.4912C171.289 98.7192 171.505 98.8962 171.763 99.0222C172.027 99.1422 172.291 99.2022 172.555 99.2022C172.729 99.2022 172.879 99.1932 173.005 99.1752C173.137 99.1572 173.248 99.1332 173.338 99.1032C173.434 99.0672 173.515 99.0342 173.581 99.0042C173.647 98.9682 173.707 98.9352 173.761 98.9052C173.815 98.8692 173.866 98.8422 173.914 98.8242C173.944 98.8122 173.977 98.8092 174.013 98.8152C174.055 98.8152 174.085 98.8302 174.103 98.8602C174.133 98.9022 174.154 98.9412 174.166 98.9772C174.178 99.0072 174.184 99.0432 174.184 99.0852C174.184 99.1392 174.112 99.2142 173.968 99.3102C173.824 99.4002 173.629 99.4812 173.383 99.5532C173.137 99.6312 172.864 99.6702 172.564 99.6702ZM170.881 97.2402H173.563C173.683 97.2402 173.776 97.2282 173.842 97.2042C173.908 97.1742 173.941 97.0842 173.941 96.9342C173.941 96.7362 173.878 96.5562 173.752 96.3942C173.632 96.2262 173.467 96.0912 173.257 95.9892C173.047 95.8872 172.807 95.8362 172.537 95.8362C172.237 95.8362 171.958 95.8962 171.7 96.0162C171.448 96.1362 171.247 96.3042 171.097 96.5202C170.947 96.7302 170.875 96.9702 170.881 97.2402ZM176.848 99.6792C176.71 99.6792 176.569 99.6642 176.425 99.6342C176.287 99.6102 176.152 99.5742 176.02 99.5262C175.894 99.4722 175.777 99.4122 175.669 99.3462C175.561 99.2742 175.474 99.1962 175.408 99.1122C175.366 99.0522 175.336 99.0012 175.318 98.9592C175.3 98.9172 175.297 98.8782 175.309 98.8422C175.327 98.8062 175.357 98.7732 175.399 98.7432C175.465 98.6712 175.528 98.6412 175.588 98.6532C175.648 98.6652 175.726 98.7222 175.822 98.8242C175.876 98.8842 175.945 98.9412 176.029 98.9952C176.113 99.0432 176.203 99.0852 176.299 99.1212C176.395 99.1572 176.491 99.1842 176.587 99.2022C176.683 99.2202 176.773 99.2292 176.857 99.2292C177.187 99.2292 177.454 99.1662 177.658 99.0402C177.862 98.9082 177.964 98.7312 177.964 98.5092C177.964 98.3952 177.943 98.2962 177.901 98.2122C177.859 98.1222 177.802 98.0472 177.73 97.9872C177.658 97.9272 177.574 97.8762 177.478 97.8342C177.388 97.7862 177.286 97.7472 177.172 97.7172C177.064 97.6812 176.953 97.6482 176.839 97.6182C176.671 97.5762 176.503 97.5312 176.335 97.4832C176.173 97.4292 176.026 97.3632 175.894 97.2852C175.762 97.2072 175.654 97.1052 175.57 96.9792C175.492 96.8532 175.453 96.6912 175.453 96.4932C175.453 96.2652 175.51 96.0672 175.624 95.8992C175.744 95.7312 175.909 95.5992 176.119 95.5032C176.329 95.4072 176.572 95.3592 176.848 95.3592C176.986 95.3592 177.115 95.3712 177.235 95.3952C177.355 95.4132 177.466 95.4432 177.568 95.4852C177.676 95.5272 177.775 95.5782 177.865 95.6382C177.961 95.6922 178.048 95.7582 178.126 95.8362C178.198 95.9022 178.237 95.9622 178.243 96.0162C178.249 96.0702 178.228 96.1272 178.18 96.1872C178.126 96.2472 178.069 96.2832 178.009 96.2952C177.949 96.3012 177.886 96.2712 177.82 96.2052C177.724 96.1092 177.622 96.0342 177.514 95.9802C177.412 95.9202 177.304 95.8752 177.19 95.8452C177.082 95.8152 176.968 95.8002 176.848 95.8002C176.674 95.8002 176.518 95.8302 176.38 95.8902C176.242 95.9442 176.134 96.0252 176.056 96.1332C175.984 96.2352 175.948 96.3552 175.948 96.4932C175.948 96.5952 175.972 96.6822 176.02 96.7542C176.074 96.8202 176.143 96.8772 176.227 96.9252C176.311 96.9732 176.41 97.0152 176.524 97.0512C176.638 97.0872 176.758 97.1232 176.884 97.1592C177.064 97.2072 177.247 97.2612 177.433 97.3212C177.619 97.3752 177.787 97.4502 177.937 97.5462C178.093 97.6362 178.219 97.7562 178.315 97.9062C178.411 98.0562 178.459 98.2512 178.459 98.4912C178.459 98.8512 178.306 99.1392 178 99.3552C177.7 99.5712 177.316 99.6792 176.848 99.6792ZM181.582 99.6702C181.252 99.6702 180.949 99.6162 180.673 99.5082C180.403 99.4002 180.169 99.2472 179.971 99.0492C179.779 98.8512 179.629 98.6172 179.521 98.3472C179.413 98.0772 179.359 97.7772 179.359 97.4472C179.359 97.0572 179.452 96.7062 179.638 96.3942C179.824 96.0822 180.082 95.8362 180.412 95.6562C180.742 95.4702 181.12 95.3772 181.546 95.3772C181.822 95.3772 182.074 95.4192 182.302 95.5032C182.53 95.5872 182.728 95.7012 182.896 95.8452C183.064 95.9892 183.193 96.1542 183.283 96.3402C183.379 96.5262 183.427 96.7182 183.427 96.9162C183.427 97.2102 183.358 97.4112 183.22 97.5192C183.088 97.6212 182.926 97.6722 182.734 97.6722H179.899C179.887 97.9902 179.965 98.2632 180.133 98.4912C180.307 98.7192 180.523 98.8962 180.781 99.0222C181.045 99.1422 181.309 99.2022 181.573 99.2022C181.747 99.2022 181.897 99.1932 182.023 99.1752C182.155 99.1572 182.266 99.1332 182.356 99.1032C182.452 99.0672 182.533 99.0342 182.599 99.0042C182.665 98.9682 182.725 98.9352 182.779 98.9052C182.833 98.8692 182.884 98.8422 182.932 98.8242C182.962 98.8122 182.995 98.8092 183.031 98.8152C183.073 98.8152 183.103 98.8302 183.121 98.8602C183.151 98.9022 183.172 98.9412 183.184 98.9772C183.196 99.0072 183.202 99.0432 183.202 99.0852C183.202 99.1392 183.13 99.2142 182.986 99.3102C182.842 99.4002 182.647 99.4812 182.401 99.5532C182.155 99.6312 181.882 99.6702 181.582 99.6702ZM179.899 97.2402H182.581C182.701 97.2402 182.794 97.2282 182.86 97.2042C182.926 97.1742 182.959 97.0842 182.959 96.9342C182.959 96.7362 182.896 96.5562 182.77 96.3942C182.65 96.2262 182.485 96.0912 182.275 95.9892C182.065 95.8872 181.825 95.8362 181.555 95.8362C181.255 95.8362 180.976 95.8962 180.718 96.0162C180.466 96.1362 180.265 96.3042 180.115 96.5202C179.965 96.7302 179.893 96.9702 179.899 97.2402ZM185.866 99.6792C185.728 99.6792 185.587 99.6642 185.443 99.6342C185.305 99.6102 185.17 99.5742 185.038 99.5262C184.912 99.4722 184.795 99.4122 184.687 99.3462C184.579 99.2742 184.492 99.1962 184.426 99.1122C184.384 99.0522 184.354 99.0012 184.336 98.9592C184.318 98.9172 184.315 98.8782 184.327 98.8422C184.345 98.8062 184.375 98.7732 184.417 98.7432C184.483 98.6712 184.546 98.6412 184.606 98.6532C184.666 98.6652 184.744 98.7222 184.84 98.8242C184.894 98.8842 184.963 98.9412 185.047 98.9952C185.131 99.0432 185.221 99.0852 185.317 99.1212C185.413 99.1572 185.509 99.1842 185.605 99.2022C185.701 99.2202 185.791 99.2292 185.875 99.2292C186.205 99.2292 186.472 99.1662 186.676 99.0402C186.88 98.9082 186.982 98.7312 186.982 98.5092C186.982 98.3952 186.961 98.2962 186.919 98.2122C186.877 98.1222 186.82 98.0472 186.748 97.9872C186.676 97.9272 186.592 97.8762 186.496 97.8342C186.406 97.7862 186.304 97.7472 186.19 97.7172C186.082 97.6812 185.971 97.6482 185.857 97.6182C185.689 97.5762 185.521 97.5312 185.353 97.4832C185.191 97.4292 185.044 97.3632 184.912 97.2852C184.78 97.2072 184.672 97.1052 184.588 96.9792C184.51 96.8532 184.471 96.6912 184.471 96.4932C184.471 96.2652 184.528 96.0672 184.642 95.8992C184.762 95.7312 184.927 95.5992 185.137 95.5032C185.347 95.4072 185.59 95.3592 185.866 95.3592C186.004 95.3592 186.133 95.3712 186.253 95.3952C186.373 95.4132 186.484 95.4432 186.586 95.4852C186.694 95.5272 186.793 95.5782 186.883 95.6382C186.979 95.6922 187.066 95.7582 187.144 95.8362C187.216 95.9022 187.255 95.9622 187.261 96.0162C187.267 96.0702 187.246 96.1272 187.198 96.1872C187.144 96.2472 187.087 96.2832 187.027 96.2952C186.967 96.3012 186.904 96.2712 186.838 96.2052C186.742 96.1092 186.64 96.0342 186.532 95.9802C186.43 95.9202 186.322 95.8752 186.208 95.8452C186.1 95.8152 185.986 95.8002 185.866 95.8002C185.692 95.8002 185.536 95.8302 185.398 95.8902C185.26 95.9442 185.152 96.0252 185.074 96.1332C185.002 96.2352 184.966 96.3552 184.966 96.4932C184.966 96.5952 184.99 96.6822 185.038 96.7542C185.092 96.8202 185.161 96.8772 185.245 96.9252C185.329 96.9732 185.428 97.0152 185.542 97.0512C185.656 97.0872 185.776 97.1232 185.902 97.1592C186.082 97.2072 186.265 97.2612 186.451 97.3212C186.637 97.3752 186.805 97.4502 186.955 97.5462C187.111 97.6362 187.237 97.7562 187.333 97.9062C187.429 98.0562 187.477 98.2512 187.477 98.4912C187.477 98.8512 187.324 99.1392 187.018 99.3552C186.718 99.5712 186.334 99.6792 185.866 99.6792Z" fill="#F5F5F5"/>
</g>
<g filter="url(#filter6_d_952_3)">
<path d="M143.927 159.228C143.615 159.228 143.33 159.183 143.072 159.093C142.82 159.003 142.598 158.88 142.406 158.724C142.214 158.568 142.061 158.391 141.947 158.193C141.839 157.995 141.773 157.788 141.749 157.572C141.749 157.416 141.839 157.338 142.019 157.338C142.097 157.338 142.151 157.35 142.181 157.374C142.217 157.392 142.241 157.428 142.253 157.482C142.271 157.536 142.289 157.608 142.307 157.698C142.391 157.938 142.514 158.136 142.676 158.292C142.838 158.442 143.027 158.556 143.243 158.634C143.459 158.706 143.69 158.742 143.936 158.742C144.26 158.742 144.545 158.682 144.791 158.562C145.037 158.442 145.229 158.277 145.367 158.067C145.505 157.857 145.574 157.62 145.574 157.356C145.574 157.104 145.505 156.882 145.367 156.69C145.229 156.492 145.043 156.339 144.809 156.231C144.575 156.117 144.311 156.06 144.017 156.06C143.921 156.06 143.846 156.051 143.792 156.033C143.744 156.015 143.711 155.988 143.693 155.952C143.675 155.91 143.666 155.856 143.666 155.79C143.666 155.724 143.675 155.673 143.693 155.637C143.711 155.601 143.744 155.574 143.792 155.556C143.846 155.538 143.924 155.529 144.026 155.529C144.308 155.529 144.545 155.481 144.737 155.385C144.929 155.289 145.073 155.166 145.169 155.016C145.271 154.866 145.322 154.71 145.322 154.548C145.322 154.314 145.265 154.107 145.151 153.927C145.043 153.741 144.89 153.597 144.692 153.495C144.494 153.393 144.263 153.342 143.999 153.342C143.795 153.342 143.609 153.369 143.441 153.423C143.273 153.477 143.117 153.561 142.973 153.675C142.835 153.783 142.703 153.927 142.577 154.107C142.505 154.203 142.448 154.257 142.406 154.269C142.364 154.275 142.289 154.245 142.181 154.179C142.139 154.149 142.106 154.119 142.082 154.089C142.058 154.053 142.055 154.014 142.073 153.972C142.115 153.888 142.169 153.798 142.235 153.702C142.307 153.6 142.394 153.501 142.496 153.405C142.604 153.303 142.727 153.213 142.865 153.135C143.009 153.051 143.171 152.985 143.351 152.937C143.537 152.883 143.747 152.856 143.981 152.856C144.269 152.856 144.53 152.901 144.764 152.991C144.998 153.075 145.196 153.192 145.358 153.342C145.52 153.492 145.643 153.666 145.727 153.864C145.817 154.062 145.862 154.275 145.862 154.503C145.862 154.689 145.823 154.869 145.745 155.043C145.667 155.211 145.562 155.361 145.43 155.493C145.298 155.619 145.154 155.718 144.998 155.79C145.196 155.856 145.364 155.952 145.502 156.078C145.64 156.198 145.754 156.333 145.844 156.483C145.934 156.633 146 156.783 146.042 156.933C146.084 157.083 146.105 157.218 146.105 157.338C146.105 157.692 146.012 158.013 145.826 158.301C145.646 158.589 145.391 158.817 145.061 158.985C144.737 159.147 144.359 159.228 143.927 159.228ZM149.1 159.219C148.68 159.219 148.32 159.129 148.02 158.949C147.72 158.763 147.489 158.487 147.327 158.121C147.171 157.755 147.093 157.302 147.093 156.762C147.093 156.294 147.144 155.862 147.246 155.466C147.354 155.064 147.507 154.707 147.705 154.395C147.909 154.077 148.152 153.807 148.434 153.585C148.716 153.357 149.034 153.186 149.388 153.072C149.742 152.952 150.126 152.892 150.54 152.892C150.6 152.892 150.645 152.901 150.675 152.919C150.705 152.937 150.726 152.967 150.738 153.009C150.756 153.045 150.765 153.096 150.765 153.162C150.765 153.228 150.756 153.282 150.738 153.324C150.72 153.36 150.69 153.387 150.648 153.405C150.612 153.417 150.561 153.423 150.495 153.423C150.171 153.423 149.868 153.465 149.586 153.549C149.304 153.627 149.046 153.747 148.812 153.909C148.578 154.065 148.374 154.26 148.2 154.494C148.032 154.728 147.9 154.998 147.804 155.304C147.714 155.61 147.666 155.949 147.66 156.321L147.507 156.519C147.579 156.321 147.693 156.144 147.849 155.988C148.005 155.832 148.197 155.709 148.425 155.619C148.653 155.529 148.905 155.484 149.181 155.484C149.559 155.484 149.88 155.562 150.144 155.718C150.414 155.868 150.618 156.081 150.756 156.357C150.9 156.627 150.972 156.942 150.972 157.302C150.972 157.686 150.897 158.022 150.747 158.31C150.603 158.598 150.39 158.823 150.108 158.985C149.832 159.141 149.496 159.219 149.1 159.219ZM149.064 158.733C149.358 158.733 149.61 158.676 149.82 158.562C150.03 158.442 150.189 158.28 150.297 158.076C150.411 157.866 150.468 157.626 150.468 157.356C150.468 157.086 150.414 156.849 150.306 156.645C150.204 156.441 150.051 156.282 149.847 156.168C149.649 156.048 149.409 155.988 149.127 155.988C148.827 155.988 148.566 156.045 148.344 156.159C148.128 156.273 147.963 156.432 147.849 156.636C147.735 156.834 147.678 157.065 147.678 157.329C147.678 157.605 147.732 157.848 147.84 158.058C147.954 158.268 148.113 158.433 148.317 158.553C148.527 158.673 148.776 158.733 149.064 158.733ZM153.789 159.237C153.609 159.237 153.444 159.225 153.294 159.201C153.144 159.177 153.003 159.144 152.871 159.102C152.739 159.054 152.613 158.997 152.493 158.931C152.373 158.865 152.253 158.787 152.133 158.697C152.079 158.655 152.037 158.622 152.007 158.598C151.977 158.568 151.962 158.532 151.962 158.49C151.962 158.466 151.968 158.439 151.98 158.409C151.992 158.379 152.016 158.337 152.052 158.283C152.094 158.223 152.133 158.184 152.169 158.166C152.205 158.142 152.235 158.13 152.259 158.13C152.277 158.13 152.301 158.136 152.331 158.148C152.367 158.16 152.415 158.193 152.475 158.247C152.571 158.325 152.67 158.4 152.772 158.472C152.88 158.538 153.009 158.592 153.159 158.634C153.309 158.676 153.498 158.697 153.726 158.697C154.008 158.697 154.254 158.64 154.464 158.526C154.68 158.412 154.848 158.247 154.968 158.031C155.088 157.815 155.148 157.56 155.148 157.266C155.148 156.984 155.085 156.735 154.959 156.519C154.839 156.303 154.674 156.135 154.464 156.015C154.254 155.889 154.02 155.826 153.762 155.826C153.648 155.826 153.534 155.841 153.42 155.871C153.306 155.895 153.198 155.934 153.096 155.988C153 156.036 152.913 156.099 152.835 156.177C152.799 156.213 152.772 156.24 152.754 156.258C152.742 156.27 152.724 156.282 152.7 156.294C152.658 156.318 152.616 156.33 152.574 156.33C152.532 156.33 152.466 156.315 152.376 156.285C152.298 156.255 152.238 156.225 152.196 156.195C152.154 156.165 152.133 156.114 152.133 156.042L152.538 153.225C152.55 153.165 152.562 153.114 152.574 153.072C152.592 153.03 152.619 152.997 152.655 152.973C152.691 152.943 152.742 152.931 152.808 152.937H155.238C155.298 152.937 155.343 152.946 155.373 152.964C155.409 152.982 155.433 153.012 155.445 153.054C155.463 153.09 155.472 153.141 155.472 153.207C155.472 153.267 155.463 153.315 155.445 153.351C155.433 153.387 155.409 153.414 155.373 153.432C155.343 153.444 155.298 153.45 155.238 153.45H153.051L152.727 155.664C152.823 155.586 152.928 155.523 153.042 155.475C153.162 155.421 153.282 155.379 153.402 155.349C153.528 155.319 153.648 155.304 153.762 155.304H153.834C154.08 155.304 154.314 155.355 154.536 155.457C154.758 155.553 154.953 155.688 155.121 155.862C155.295 156.036 155.433 156.237 155.535 156.465C155.637 156.693 155.688 156.936 155.688 157.194C155.688 157.596 155.604 157.95 155.436 158.256C155.268 158.562 155.04 158.802 154.752 158.976C154.47 159.15 154.149 159.237 153.789 159.237ZM161.053 159.219C160.777 159.219 160.516 159.168 160.27 159.066C160.03 158.964 159.82 158.817 159.64 158.625C159.46 158.433 159.319 158.205 159.217 157.941C159.115 157.671 159.064 157.374 159.064 157.05C159.064 156.732 159.115 156.444 159.217 156.186C159.319 155.922 159.46 155.697 159.64 155.511C159.82 155.319 160.03 155.172 160.27 155.07C160.516 154.968 160.777 154.917 161.053 154.917C161.347 154.917 161.617 154.968 161.863 155.07C162.109 155.172 162.322 155.319 162.502 155.511C162.682 155.703 162.82 155.931 162.916 156.195C163.018 156.459 163.069 156.753 163.069 157.077C163.069 157.401 163.018 157.695 162.916 157.959C162.82 158.217 162.682 158.442 162.502 158.634C162.322 158.82 162.109 158.964 161.863 159.066C161.617 159.168 161.347 159.219 161.053 159.219ZM161.134 158.742C161.434 158.742 161.701 158.673 161.935 158.535C162.169 158.391 162.355 158.196 162.493 157.95C162.631 157.698 162.7 157.407 162.7 157.077C162.7 156.741 162.631 156.447 162.493 156.195C162.355 155.943 162.166 155.748 161.926 155.61C161.692 155.466 161.428 155.394 161.134 155.394C160.84 155.394 160.573 155.466 160.333 155.61C160.093 155.748 159.904 155.943 159.766 156.195C159.628 156.447 159.559 156.741 159.559 157.077C159.559 157.407 159.628 157.698 159.766 157.95C159.904 158.196 160.093 158.391 160.333 158.535C160.573 158.673 160.84 158.742 161.134 158.742ZM162.988 159.219C162.892 159.219 162.823 159.198 162.781 159.156C162.745 159.114 162.727 159.045 162.727 158.949V153.216C162.727 153.144 162.733 153.09 162.745 153.054C162.763 153.012 162.79 152.982 162.826 152.964C162.868 152.946 162.919 152.937 162.979 152.937C163.045 152.937 163.096 152.946 163.132 152.964C163.168 152.982 163.195 153.012 163.213 153.054C163.231 153.09 163.24 153.141 163.24 153.207V158.94C163.24 159.006 163.231 159.06 163.213 159.102C163.201 159.144 163.177 159.174 163.141 159.192C163.105 159.21 163.054 159.219 162.988 159.219ZM164.849 159.219C164.789 159.219 164.738 159.21 164.696 159.192C164.66 159.174 164.633 159.147 164.615 159.111C164.603 159.069 164.597 159.015 164.597 158.949V155.187C164.597 155.121 164.603 155.07 164.615 155.034C164.633 154.992 164.66 154.965 164.696 154.953C164.738 154.935 164.792 154.926 164.858 154.926C164.924 154.926 164.975 154.935 165.011 154.953C165.047 154.971 165.071 155.001 165.083 155.043C165.101 155.079 165.11 155.133 165.11 155.205V158.958C165.11 159.024 165.101 159.078 165.083 159.12C165.071 159.156 165.044 159.18 165.002 159.192C164.966 159.21 164.915 159.219 164.849 159.219ZM164.849 153.63C164.765 153.63 164.699 153.618 164.651 153.594C164.603 153.57 164.567 153.531 164.543 153.477C164.525 153.423 164.516 153.354 164.516 153.27C164.516 153.186 164.525 153.12 164.543 153.072C164.567 153.024 164.603 152.991 164.651 152.973C164.705 152.949 164.774 152.937 164.858 152.937C164.942 152.937 165.008 152.949 165.056 152.973C165.104 152.997 165.137 153.036 165.155 153.09C165.179 153.138 165.191 153.207 165.191 153.297C165.191 153.375 165.179 153.441 165.155 153.495C165.137 153.543 165.104 153.579 165.056 153.603C165.008 153.621 164.939 153.63 164.849 153.63ZM170.036 159.21C169.952 159.21 169.892 159.189 169.856 159.147C169.82 159.105 169.796 159.027 169.784 158.913V158.31C169.718 158.424 169.613 158.553 169.469 158.697C169.331 158.835 169.148 158.958 168.92 159.066C168.698 159.168 168.428 159.219 168.11 159.219C167.816 159.219 167.543 159.165 167.291 159.057C167.045 158.943 166.829 158.787 166.643 158.589C166.457 158.391 166.31 158.163 166.202 157.905C166.1 157.641 166.049 157.356 166.049 157.05C166.049 156.756 166.1 156.483 166.202 156.231C166.31 155.973 166.457 155.748 166.643 155.556C166.835 155.358 167.054 155.205 167.3 155.097C167.552 154.983 167.822 154.926 168.11 154.926C168.392 154.926 168.632 154.962 168.83 155.034C169.034 155.106 169.211 155.205 169.361 155.331C169.517 155.457 169.658 155.604 169.784 155.772V155.259C169.784 155.139 169.802 155.055 169.838 155.007C169.88 154.953 169.949 154.926 170.045 154.926C170.105 154.926 170.15 154.938 170.18 154.962C170.216 154.98 170.24 155.013 170.252 155.061C170.27 155.109 170.279 155.175 170.279 155.259V158.913C170.279 158.985 170.27 159.045 170.252 159.093C170.24 159.135 170.216 159.165 170.18 159.183C170.144 159.201 170.096 159.21 170.036 159.21ZM168.209 158.751C168.497 158.751 168.758 158.679 168.992 158.535C169.226 158.385 169.412 158.184 169.55 157.932C169.688 157.68 169.757 157.392 169.757 157.068C169.757 156.726 169.685 156.429 169.541 156.177C169.397 155.925 169.205 155.73 168.965 155.592C168.731 155.448 168.473 155.376 168.191 155.376C167.861 155.376 167.573 155.451 167.327 155.601C167.081 155.751 166.889 155.955 166.751 156.213C166.613 156.465 166.544 156.756 166.544 157.086C166.544 157.404 166.613 157.689 166.751 157.941C166.889 158.193 167.084 158.391 167.336 158.535C167.588 158.679 167.879 158.751 168.209 158.751ZM172.898 159.246C172.76 159.246 172.619 159.231 172.475 159.201C172.337 159.177 172.202 159.141 172.07 159.093C171.944 159.039 171.827 158.979 171.719 158.913C171.611 158.841 171.524 158.763 171.458 158.679C171.416 158.619 171.386 158.568 171.368 158.526C171.35 158.484 171.347 158.445 171.359 158.409C171.377 158.373 171.407 158.34 171.449 158.31C171.515 158.238 171.578 158.208 171.638 158.22C171.698 158.232 171.776 158.289 171.872 158.391C171.926 158.451 171.995 158.508 172.079 158.562C172.163 158.61 172.253 158.652 172.349 158.688C172.445 158.724 172.541 158.751 172.637 158.769C172.733 158.787 172.823 158.796 172.907 158.796C173.237 158.796 173.504 158.733 173.708 158.607C173.912 158.475 174.014 158.298 174.014 158.076C174.014 157.962 173.993 157.863 173.951 157.779C173.909 157.689 173.852 157.614 173.78 157.554C173.708 157.494 173.624 157.443 173.528 157.401C173.438 157.353 173.336 157.314 173.222 157.284C173.114 157.248 173.003 157.215 172.889 157.185C172.721 157.143 172.553 157.098 172.385 157.05C172.223 156.996 172.076 156.93 171.944 156.852C171.812 156.774 171.704 156.672 171.62 156.546C171.542 156.42 171.503 156.258 171.503 156.06C171.503 155.832 171.56 155.634 171.674 155.466C171.794 155.298 171.959 155.166 172.169 155.07C172.379 154.974 172.622 154.926 172.898 154.926C173.036 154.926 173.165 154.938 173.285 154.962C173.405 154.98 173.516 155.01 173.618 155.052C173.726 155.094 173.825 155.145 173.915 155.205C174.011 155.259 174.098 155.325 174.176 155.403C174.248 155.469 174.287 155.529 174.293 155.583C174.299 155.637 174.278 155.694 174.23 155.754C174.176 155.814 174.119 155.85 174.059 155.862C173.999 155.868 173.936 155.838 173.87 155.772C173.774 155.676 173.672 155.601 173.564 155.547C173.462 155.487 173.354 155.442 173.24 155.412C173.132 155.382 173.018 155.367 172.898 155.367C172.724 155.367 172.568 155.397 172.43 155.457C172.292 155.511 172.184 155.592 172.106 155.7C172.034 155.802 171.998 155.922 171.998 156.06C171.998 156.162 172.022 156.249 172.07 156.321C172.124 156.387 172.193 156.444 172.277 156.492C172.361 156.54 172.46 156.582 172.574 156.618C172.688 156.654 172.808 156.69 172.934 156.726C173.114 156.774 173.297 156.828 173.483 156.888C173.669 156.942 173.837 157.017 173.987 157.113C174.143 157.203 174.269 157.323 174.365 157.473C174.461 157.623 174.509 157.818 174.509 158.058C174.509 158.418 174.356 158.706 174.05 158.922C173.75 159.138 173.366 159.246 172.898 159.246ZM143.783 165.219C143.507 165.219 143.246 165.168 143 165.066C142.76 164.964 142.55 164.817 142.37 164.625C142.19 164.433 142.049 164.205 141.947 163.941C141.845 163.671 141.794 163.374 141.794 163.05C141.794 162.732 141.845 162.444 141.947 162.186C142.049 161.922 142.19 161.697 142.37 161.511C142.55 161.319 142.76 161.172 143 161.07C143.246 160.968 143.507 160.917 143.783 160.917C144.077 160.917 144.347 160.968 144.593 161.07C144.839 161.172 145.052 161.319 145.232 161.511C145.412 161.703 145.55 161.931 145.646 162.195C145.748 162.459 145.799 162.753 145.799 163.077C145.799 163.401 145.748 163.695 145.646 163.959C145.55 164.217 145.412 164.442 145.232 164.634C145.052 164.82 144.839 164.964 144.593 165.066C144.347 165.168 144.077 165.219 143.783 165.219ZM143.864 164.742C144.164 164.742 144.431 164.673 144.665 164.535C144.899 164.391 145.085 164.196 145.223 163.95C145.361 163.698 145.43 163.407 145.43 163.077C145.43 162.741 145.361 162.447 145.223 162.195C145.085 161.943 144.896 161.748 144.656 161.61C144.422 161.466 144.158 161.394 143.864 161.394C143.57 161.394 143.303 161.466 143.063 161.61C142.823 161.748 142.634 161.943 142.496 162.195C142.358 162.447 142.289 162.741 142.289 163.077C142.289 163.407 142.358 163.698 142.496 163.95C142.634 164.196 142.823 164.391 143.063 164.535C143.303 164.673 143.57 164.742 143.864 164.742ZM145.718 165.219C145.622 165.219 145.553 165.198 145.511 165.156C145.475 165.114 145.457 165.045 145.457 164.949V159.216C145.457 159.144 145.463 159.09 145.475 159.054C145.493 159.012 145.52 158.982 145.556 158.964C145.598 158.946 145.649 158.937 145.709 158.937C145.775 158.937 145.826 158.946 145.862 158.964C145.898 158.982 145.925 159.012 145.943 159.054C145.961 159.09 145.97 159.141 145.97 159.207V164.94C145.97 165.006 145.961 165.06 145.943 165.102C145.931 165.144 145.907 165.174 145.871 165.192C145.835 165.21 145.784 165.219 145.718 165.219ZM149.243 165.237C148.913 165.237 148.61 165.183 148.334 165.075C148.064 164.967 147.83 164.814 147.632 164.616C147.44 164.418 147.29 164.184 147.182 163.914C147.074 163.644 147.02 163.344 147.02 163.014C147.02 162.624 147.113 162.273 147.299 161.961C147.485 161.649 147.743 161.403 148.073 161.223C148.403 161.037 148.781 160.944 149.207 160.944C149.483 160.944 149.735 160.986 149.963 161.07C150.191 161.154 150.389 161.268 150.557 161.412C150.725 161.556 150.854 161.721 150.944 161.907C151.04 162.093 151.088 162.285 151.088 162.483C151.088 162.777 151.019 162.978 150.881 163.086C150.749 163.188 150.587 163.239 150.395 163.239H147.56C147.548 163.557 147.626 163.83 147.794 164.058C147.968 164.286 148.184 164.463 148.442 164.589C148.706 164.709 148.97 164.769 149.234 164.769C149.408 164.769 149.558 164.76 149.684 164.742C149.816 164.724 149.927 164.7 150.017 164.67C150.113 164.634 150.194 164.601 150.26 164.571C150.326 164.535 150.386 164.502 150.44 164.472C150.494 164.436 150.545 164.409 150.593 164.391C150.623 164.379 150.656 164.376 150.692 164.382C150.734 164.382 150.764 164.397 150.782 164.427C150.812 164.469 150.833 164.508 150.845 164.544C150.857 164.574 150.863 164.61 150.863 164.652C150.863 164.706 150.791 164.781 150.647 164.877C150.503 164.967 150.308 165.048 150.062 165.12C149.816 165.198 149.543 165.237 149.243 165.237ZM147.56 162.807H150.242C150.362 162.807 150.455 162.795 150.521 162.771C150.587 162.741 150.62 162.651 150.62 162.501C150.62 162.303 150.557 162.123 150.431 161.961C150.311 161.793 150.146 161.658 149.936 161.556C149.726 161.454 149.486 161.403 149.216 161.403C148.916 161.403 148.637 161.463 148.379 161.583C148.127 161.703 147.926 161.871 147.776 162.087C147.626 162.297 147.554 162.537 147.56 162.807ZM158.047 165.21C157.963 165.21 157.903 165.189 157.867 165.147C157.831 165.105 157.807 165.027 157.795 164.913V164.31C157.729 164.424 157.624 164.553 157.48 164.697C157.342 164.835 157.159 164.958 156.931 165.066C156.709 165.168 156.439 165.219 156.121 165.219C155.827 165.219 155.554 165.165 155.302 165.057C155.056 164.943 154.84 164.787 154.654 164.589C154.468 164.391 154.321 164.163 154.213 163.905C154.111 163.641 154.06 163.356 154.06 163.05C154.06 162.756 154.111 162.483 154.213 162.231C154.321 161.973 154.468 161.748 154.654 161.556C154.846 161.358 155.065 161.205 155.311 161.097C155.563 160.983 155.833 160.926 156.121 160.926C156.403 160.926 156.643 160.962 156.841 161.034C157.045 161.106 157.222 161.205 157.372 161.331C157.528 161.457 157.669 161.604 157.795 161.772V161.259C157.795 161.139 157.813 161.055 157.849 161.007C157.891 160.953 157.96 160.926 158.056 160.926C158.116 160.926 158.161 160.938 158.191 160.962C158.227 160.98 158.251 161.013 158.263 161.061C158.281 161.109 158.29 161.175 158.29 161.259V164.913C158.29 164.985 158.281 165.045 158.263 165.093C158.251 165.135 158.227 165.165 158.191 165.183C158.155 165.201 158.107 165.21 158.047 165.21ZM156.22 164.751C156.508 164.751 156.769 164.679 157.003 164.535C157.237 164.385 157.423 164.184 157.561 163.932C157.699 163.68 157.768 163.392 157.768 163.068C157.768 162.726 157.696 162.429 157.552 162.177C157.408 161.925 157.216 161.73 156.976 161.592C156.742 161.448 156.484 161.376 156.202 161.376C155.872 161.376 155.584 161.451 155.338 161.601C155.092 161.751 154.9 161.955 154.762 162.213C154.624 162.465 154.555 162.756 154.555 163.086C154.555 163.404 154.624 163.689 154.762 163.941C154.9 164.193 155.095 164.391 155.347 164.535C155.599 164.679 155.89 164.751 156.22 164.751ZM161.504 165.219C161.174 165.219 160.871 165.168 160.595 165.066C160.325 164.964 160.091 164.82 159.893 164.634C159.695 164.442 159.542 164.217 159.434 163.959C159.332 163.695 159.281 163.401 159.281 163.077C159.281 162.753 159.332 162.462 159.434 162.204C159.542 161.94 159.692 161.712 159.884 161.52C160.082 161.328 160.316 161.181 160.586 161.079C160.856 160.977 161.156 160.926 161.486 160.926C161.684 160.926 161.885 160.962 162.089 161.034C162.299 161.1 162.488 161.19 162.656 161.304C162.824 161.412 162.944 161.535 163.016 161.673C163.058 161.751 163.079 161.808 163.079 161.844C163.079 161.88 163.064 161.916 163.034 161.952C162.998 161.994 162.956 162.027 162.908 162.051C162.866 162.075 162.827 162.087 162.791 162.087C162.719 162.087 162.65 162.045 162.584 161.961C162.524 161.877 162.452 161.802 162.368 161.736C162.284 161.67 162.191 161.613 162.089 161.565C161.993 161.517 161.894 161.481 161.792 161.457C161.69 161.427 161.588 161.412 161.486 161.412C161.15 161.412 160.856 161.481 160.604 161.619C160.352 161.757 160.157 161.952 160.019 162.204C159.881 162.45 159.812 162.741 159.812 163.077C159.812 163.407 159.881 163.698 160.019 163.95C160.157 164.196 160.349 164.388 160.595 164.526C160.847 164.664 161.138 164.733 161.468 164.733C161.606 164.733 161.744 164.715 161.882 164.679C162.02 164.643 162.152 164.592 162.278 164.526C162.404 164.454 162.512 164.373 162.602 164.283C162.65 164.241 162.689 164.208 162.719 164.184C162.755 164.154 162.797 164.139 162.845 164.139C162.881 164.139 162.914 164.154 162.944 164.184C162.98 164.208 163.016 164.244 163.052 164.292C163.076 164.316 163.091 164.346 163.097 164.382C163.103 164.412 163.1 164.445 163.088 164.481C163.082 164.517 163.064 164.55 163.034 164.58C162.908 164.706 162.755 164.817 162.575 164.913C162.401 165.009 162.218 165.084 162.026 165.138C161.84 165.192 161.666 165.219 161.504 165.219ZM166.092 165.237C165.762 165.237 165.459 165.183 165.183 165.075C164.913 164.967 164.679 164.814 164.481 164.616C164.289 164.418 164.139 164.184 164.031 163.914C163.923 163.644 163.869 163.344 163.869 163.014C163.869 162.624 163.962 162.273 164.148 161.961C164.334 161.649 164.592 161.403 164.922 161.223C165.252 161.037 165.63 160.944 166.056 160.944C166.332 160.944 166.584 160.986 166.812 161.07C167.04 161.154 167.238 161.268 167.406 161.412C167.574 161.556 167.703 161.721 167.793 161.907C167.889 162.093 167.937 162.285 167.937 162.483C167.937 162.777 167.868 162.978 167.73 163.086C167.598 163.188 167.436 163.239 167.244 163.239H164.409C164.397 163.557 164.475 163.83 164.643 164.058C164.817 164.286 165.033 164.463 165.291 164.589C165.555 164.709 165.819 164.769 166.083 164.769C166.257 164.769 166.407 164.76 166.533 164.742C166.665 164.724 166.776 164.7 166.866 164.67C166.962 164.634 167.043 164.601 167.109 164.571C167.175 164.535 167.235 164.502 167.289 164.472C167.343 164.436 167.394 164.409 167.442 164.391C167.472 164.379 167.505 164.376 167.541 164.382C167.583 164.382 167.613 164.397 167.631 164.427C167.661 164.469 167.682 164.508 167.694 164.544C167.706 164.574 167.712 164.61 167.712 164.652C167.712 164.706 167.64 164.781 167.496 164.877C167.352 164.967 167.157 165.048 166.911 165.12C166.665 165.198 166.392 165.237 166.092 165.237ZM164.409 162.807H167.091C167.211 162.807 167.304 162.795 167.37 162.771C167.436 162.741 167.469 162.651 167.469 162.501C167.469 162.303 167.406 162.123 167.28 161.961C167.16 161.793 166.995 161.658 166.785 161.556C166.575 161.454 166.335 161.403 166.065 161.403C165.765 161.403 165.486 161.463 165.228 161.583C164.976 161.703 164.775 161.871 164.625 162.087C164.475 162.297 164.403 162.537 164.409 162.807ZM170.376 165.246C170.238 165.246 170.097 165.231 169.953 165.201C169.815 165.177 169.68 165.141 169.548 165.093C169.422 165.039 169.305 164.979 169.197 164.913C169.089 164.841 169.002 164.763 168.936 164.679C168.894 164.619 168.864 164.568 168.846 164.526C168.828 164.484 168.825 164.445 168.837 164.409C168.855 164.373 168.885 164.34 168.927 164.31C168.993 164.238 169.056 164.208 169.116 164.22C169.176 164.232 169.254 164.289 169.35 164.391C169.404 164.451 169.473 164.508 169.557 164.562C169.641 164.61 169.731 164.652 169.827 164.688C169.923 164.724 170.019 164.751 170.115 164.769C170.211 164.787 170.301 164.796 170.385 164.796C170.715 164.796 170.982 164.733 171.186 164.607C171.39 164.475 171.492 164.298 171.492 164.076C171.492 163.962 171.471 163.863 171.429 163.779C171.387 163.689 171.33 163.614 171.258 163.554C171.186 163.494 171.102 163.443 171.006 163.401C170.916 163.353 170.814 163.314 170.7 163.284C170.592 163.248 170.481 163.215 170.367 163.185C170.199 163.143 170.031 163.098 169.863 163.05C169.701 162.996 169.554 162.93 169.422 162.852C169.29 162.774 169.182 162.672 169.098 162.546C169.02 162.42 168.981 162.258 168.981 162.06C168.981 161.832 169.038 161.634 169.152 161.466C169.272 161.298 169.437 161.166 169.647 161.07C169.857 160.974 170.1 160.926 170.376 160.926C170.514 160.926 170.643 160.938 170.763 160.962C170.883 160.98 170.994 161.01 171.096 161.052C171.204 161.094 171.303 161.145 171.393 161.205C171.489 161.259 171.576 161.325 171.654 161.403C171.726 161.469 171.765 161.529 171.771 161.583C171.777 161.637 171.756 161.694 171.708 161.754C171.654 161.814 171.597 161.85 171.537 161.862C171.477 161.868 171.414 161.838 171.348 161.772C171.252 161.676 171.15 161.601 171.042 161.547C170.94 161.487 170.832 161.442 170.718 161.412C170.61 161.382 170.496 161.367 170.376 161.367C170.202 161.367 170.046 161.397 169.908 161.457C169.77 161.511 169.662 161.592 169.584 161.7C169.512 161.802 169.476 161.922 169.476 162.06C169.476 162.162 169.5 162.249 169.548 162.321C169.602 162.387 169.671 162.444 169.755 162.492C169.839 162.54 169.938 162.582 170.052 162.618C170.166 162.654 170.286 162.69 170.412 162.726C170.592 162.774 170.775 162.828 170.961 162.888C171.147 162.942 171.315 163.017 171.465 163.113C171.621 163.203 171.747 163.323 171.843 163.473C171.939 163.623 171.987 163.818 171.987 164.058C171.987 164.418 171.834 164.706 171.528 164.922C171.228 165.138 170.844 165.246 170.376 165.246ZM174.34 165.246C174.202 165.246 174.061 165.231 173.917 165.201C173.779 165.177 173.644 165.141 173.512 165.093C173.386 165.039 173.269 164.979 173.161 164.913C173.053 164.841 172.966 164.763 172.9 164.679C172.858 164.619 172.828 164.568 172.81 164.526C172.792 164.484 172.789 164.445 172.801 164.409C172.819 164.373 172.849 164.34 172.891 164.31C172.957 164.238 173.02 164.208 173.08 164.22C173.14 164.232 173.218 164.289 173.314 164.391C173.368 164.451 173.437 164.508 173.521 164.562C173.605 164.61 173.695 164.652 173.791 164.688C173.887 164.724 173.983 164.751 174.079 164.769C174.175 164.787 174.265 164.796 174.349 164.796C174.679 164.796 174.946 164.733 175.15 164.607C175.354 164.475 175.456 164.298 175.456 164.076C175.456 163.962 175.435 163.863 175.393 163.779C175.351 163.689 175.294 163.614 175.222 163.554C175.15 163.494 175.066 163.443 174.97 163.401C174.88 163.353 174.778 163.314 174.664 163.284C174.556 163.248 174.445 163.215 174.331 163.185C174.163 163.143 173.995 163.098 173.827 163.05C173.665 162.996 173.518 162.93 173.386 162.852C173.254 162.774 173.146 162.672 173.062 162.546C172.984 162.42 172.945 162.258 172.945 162.06C172.945 161.832 173.002 161.634 173.116 161.466C173.236 161.298 173.401 161.166 173.611 161.07C173.821 160.974 174.064 160.926 174.34 160.926C174.478 160.926 174.607 160.938 174.727 160.962C174.847 160.98 174.958 161.01 175.06 161.052C175.168 161.094 175.267 161.145 175.357 161.205C175.453 161.259 175.54 161.325 175.618 161.403C175.69 161.469 175.729 161.529 175.735 161.583C175.741 161.637 175.72 161.694 175.672 161.754C175.618 161.814 175.561 161.85 175.501 161.862C175.441 161.868 175.378 161.838 175.312 161.772C175.216 161.676 175.114 161.601 175.006 161.547C174.904 161.487 174.796 161.442 174.682 161.412C174.574 161.382 174.46 161.367 174.34 161.367C174.166 161.367 174.01 161.397 173.872 161.457C173.734 161.511 173.626 161.592 173.548 161.7C173.476 161.802 173.44 161.922 173.44 162.06C173.44 162.162 173.464 162.249 173.512 162.321C173.566 162.387 173.635 162.444 173.719 162.492C173.803 162.54 173.902 162.582 174.016 162.618C174.13 162.654 174.25 162.69 174.376 162.726C174.556 162.774 174.739 162.828 174.925 162.888C175.111 162.942 175.279 163.017 175.429 163.113C175.585 163.203 175.711 163.323 175.807 163.473C175.903 163.623 175.951 163.818 175.951 164.058C175.951 164.418 175.798 164.706 175.492 164.922C175.192 165.138 174.808 165.246 174.34 165.246ZM178.992 165.255C178.692 165.255 178.41 165.198 178.146 165.084C177.882 164.97 177.648 164.814 177.444 164.616C177.246 164.418 177.09 164.187 176.976 163.923C176.862 163.659 176.805 163.377 176.805 163.077C176.805 162.771 176.859 162.489 176.967 162.231C177.081 161.967 177.237 161.736 177.435 161.538C177.639 161.334 177.87 161.178 178.128 161.07C178.392 160.956 178.674 160.899 178.974 160.899C179.376 160.899 179.739 160.995 180.063 161.187C180.387 161.373 180.645 161.631 180.837 161.961C181.029 162.285 181.125 162.654 181.125 163.068C181.125 163.38 181.068 163.668 180.954 163.932C180.846 164.196 180.693 164.427 180.495 164.625C180.303 164.823 180.078 164.979 179.82 165.093C179.562 165.201 179.286 165.255 178.992 165.255ZM178.974 164.769C179.28 164.769 179.556 164.694 179.802 164.544C180.054 164.388 180.252 164.181 180.396 163.923C180.546 163.659 180.621 163.368 180.621 163.05C180.621 162.726 180.549 162.438 180.405 162.186C180.261 161.934 180.063 161.739 179.811 161.601C179.565 161.457 179.283 161.385 178.965 161.385C178.653 161.385 178.371 161.46 178.119 161.61C177.873 161.754 177.675 161.952 177.525 162.204C177.381 162.456 177.309 162.741 177.309 163.059C177.309 163.383 177.381 163.674 177.525 163.932C177.675 164.19 177.876 164.394 178.128 164.544C178.38 164.694 178.662 164.769 178.974 164.769Z" fill="#F5F5F5"/>
</g>
<g filter="url(#filter7_d_952_3)">
<path d="M244.63 462.695C244.77 462.795 244.845 462.89 244.855 462.98C244.875 463.06 244.84 463.17 244.75 463.31C244.69 463.4 244.63 463.465 244.57 463.505C244.51 463.535 244.445 463.54 244.375 463.52C244.305 463.51 244.225 463.475 244.135 463.415L242.215 462.11C241.755 462.61 241.215 463.01 240.595 463.31C239.985 463.6 239.33 463.745 238.63 463.745C237.92 463.745 237.255 463.61 236.635 463.34C236.015 463.07 235.465 462.695 234.985 462.215C234.515 461.735 234.145 461.18 233.875 460.55C233.615 459.92 233.485 459.245 233.485 458.525C233.485 457.785 233.615 457.09 233.875 456.44C234.135 455.79 234.495 455.22 234.955 454.73C235.415 454.24 235.945 453.855 236.545 453.575C237.155 453.295 237.805 453.155 238.495 453.155C239.205 453.155 239.87 453.29 240.49 453.56C241.11 453.83 241.65 454.21 242.11 454.7C242.58 455.18 242.945 455.745 243.205 456.395C243.475 457.035 243.61 457.725 243.61 458.465C243.61 459.005 243.535 459.525 243.385 460.025C243.235 460.525 243.02 460.985 242.74 461.405L244.63 462.695ZM238.54 462.845C239.12 462.845 239.66 462.735 240.16 462.515C240.67 462.285 241.115 461.97 241.495 461.57C241.875 461.16 242.17 460.69 242.38 460.16C242.6 459.63 242.71 459.06 242.71 458.45C242.71 457.85 242.6 457.285 242.38 456.755C242.17 456.225 241.87 455.76 241.48 455.36C241.1 454.95 240.66 454.63 240.16 454.4C239.66 454.17 239.125 454.055 238.555 454.055C237.985 454.055 237.445 454.17 236.935 454.4C236.435 454.63 235.99 454.945 235.6 455.345C235.22 455.745 234.92 456.215 234.7 456.755C234.49 457.285 234.385 457.855 234.385 458.465C234.385 459.065 234.495 459.63 234.715 460.16C234.935 460.69 235.235 461.155 235.615 461.555C235.995 461.955 236.435 462.27 236.935 462.5C237.435 462.73 237.97 462.845 238.54 462.845ZM248.696 463.685C248.266 463.685 247.871 463.615 247.511 463.475C247.151 463.325 246.836 463.115 246.566 462.845C246.296 462.565 246.086 462.23 245.936 461.84C245.786 461.44 245.711 460.985 245.711 460.475V456.95C245.711 456.84 245.721 456.755 245.741 456.695C245.771 456.625 245.816 456.58 245.876 456.56C245.946 456.53 246.031 456.515 246.131 456.515C246.241 456.515 246.326 456.53 246.386 456.56C246.456 456.59 246.501 456.64 246.521 456.71C246.551 456.77 246.566 456.855 246.566 456.965V460.49C246.566 460.97 246.646 461.395 246.806 461.765C246.966 462.125 247.206 462.405 247.526 462.605C247.846 462.805 248.246 462.905 248.726 462.905C249.216 462.905 249.636 462.805 249.986 462.605C250.336 462.405 250.606 462.125 250.796 461.765C250.986 461.395 251.081 460.97 251.081 460.49V456.95C251.081 456.84 251.091 456.755 251.111 456.695C251.141 456.625 251.186 456.58 251.246 456.56C251.316 456.53 251.406 456.515 251.516 456.515C251.616 456.515 251.696 456.53 251.756 456.56C251.816 456.59 251.856 456.64 251.876 456.71C251.906 456.77 251.921 456.855 251.921 456.965V463.265C251.921 463.355 251.906 463.43 251.876 463.49C251.856 463.55 251.816 463.59 251.756 463.61C251.696 463.64 251.611 463.655 251.501 463.655C251.431 463.655 251.371 463.645 251.321 463.625C251.271 463.615 251.231 463.595 251.201 463.565C251.171 463.535 251.146 463.495 251.126 463.445C251.116 463.395 251.111 463.335 251.111 463.265V462.38C250.981 462.55 250.836 462.715 250.676 462.875C250.516 463.025 250.336 463.165 250.136 463.295C249.946 463.415 249.731 463.51 249.491 463.58C249.251 463.65 248.986 463.685 248.696 463.685ZM257.278 463.7C256.728 463.7 256.223 463.61 255.763 463.43C255.313 463.25 254.923 462.995 254.593 462.665C254.273 462.335 254.023 461.945 253.843 461.495C253.663 461.045 253.573 460.545 253.573 459.995C253.573 459.345 253.728 458.76 254.038 458.24C254.348 457.72 254.778 457.31 255.328 457.01C255.878 456.7 256.508 456.545 257.218 456.545C257.678 456.545 258.098 456.615 258.478 456.755C258.858 456.895 259.188 457.085 259.468 457.325C259.748 457.565 259.963 457.84 260.113 458.15C260.273 458.46 260.353 458.78 260.353 459.11C260.353 459.6 260.238 459.935 260.008 460.115C259.788 460.285 259.518 460.37 259.198 460.37H254.473C254.453 460.9 254.583 461.355 254.863 461.735C255.153 462.115 255.513 462.41 255.943 462.62C256.383 462.82 256.823 462.92 257.263 462.92C257.553 462.92 257.803 462.905 258.013 462.875C258.233 462.845 258.418 462.805 258.568 462.755C258.728 462.695 258.863 462.64 258.973 462.59C259.083 462.53 259.183 462.475 259.273 462.425C259.363 462.365 259.448 462.32 259.528 462.29C259.578 462.27 259.633 462.265 259.693 462.275C259.763 462.275 259.813 462.3 259.843 462.35C259.893 462.42 259.928 462.485 259.948 462.545C259.968 462.595 259.978 462.655 259.978 462.725C259.978 462.815 259.858 462.94 259.618 463.1C259.378 463.25 259.053 463.385 258.643 463.505C258.233 463.635 257.778 463.7 257.278 463.7ZM254.473 459.65H258.943C259.143 459.65 259.298 459.63 259.408 459.59C259.518 459.54 259.573 459.39 259.573 459.14C259.573 458.81 259.468 458.51 259.258 458.24C259.058 457.96 258.783 457.735 258.433 457.565C258.083 457.395 257.683 457.31 257.233 457.31C256.733 457.31 256.268 457.41 255.838 457.61C255.418 457.81 255.083 458.09 254.833 458.45C254.583 458.8 254.463 459.2 254.473 459.65ZM262.558 463.67C262.458 463.67 262.378 463.655 262.318 463.625C262.258 463.595 262.213 463.545 262.183 463.475C262.163 463.405 262.153 463.315 262.153 463.205V456.95C262.153 456.83 262.163 456.74 262.183 456.68C262.213 456.61 262.258 456.565 262.318 456.545C262.378 456.525 262.463 456.515 262.573 456.515C262.673 456.515 262.753 456.525 262.813 456.545C262.883 456.565 262.933 456.61 262.963 456.68C262.993 456.74 263.008 456.83 263.008 456.95V457.58C263.108 457.41 263.208 457.255 263.308 457.115C263.408 456.975 263.528 456.855 263.668 456.755C263.808 456.645 263.978 456.56 264.178 456.5C264.388 456.44 264.648 456.41 264.958 456.41C265.118 456.41 265.263 456.425 265.393 456.455C265.533 456.485 265.658 456.525 265.768 456.575C265.888 456.625 265.988 456.68 266.068 456.74C266.148 456.8 266.208 456.86 266.248 456.92C266.288 456.98 266.308 457.04 266.308 457.1C266.308 457.23 266.253 457.34 266.143 457.43C266.033 457.52 265.933 457.565 265.843 457.565C265.733 457.565 265.648 457.55 265.588 457.52C265.538 457.48 265.483 457.435 265.423 457.385C265.363 457.335 265.273 457.295 265.153 457.265C265.033 457.225 264.848 457.205 264.598 457.205C264.448 457.205 264.283 457.24 264.103 457.31C263.923 457.37 263.748 457.465 263.578 457.595C263.418 457.725 263.283 457.895 263.173 458.105C263.063 458.315 263.008 458.565 263.008 458.855V463.235C263.008 463.345 262.993 463.435 262.963 463.505C262.943 463.565 262.898 463.605 262.828 463.625C262.768 463.655 262.678 463.67 262.558 463.67ZM271.089 463.73C270.589 463.73 270.119 463.635 269.679 463.445C269.239 463.255 268.849 462.995 268.509 462.665C268.179 462.335 267.919 461.95 267.729 461.51C267.539 461.07 267.444 460.6 267.444 460.1C267.444 459.59 267.534 459.12 267.714 458.69C267.904 458.25 268.164 457.865 268.494 457.535C268.834 457.195 269.219 456.935 269.649 456.755C270.089 456.565 270.559 456.47 271.059 456.47C271.729 456.47 272.334 456.63 272.874 456.95C273.414 457.26 273.844 457.69 274.164 458.24C274.484 458.78 274.644 459.395 274.644 460.085C274.644 460.605 274.549 461.085 274.359 461.525C274.179 461.965 273.924 462.35 273.594 462.68C273.274 463.01 272.899 463.27 272.469 463.46C272.039 463.64 271.579 463.73 271.089 463.73ZM271.059 462.92C271.569 462.92 272.029 462.795 272.439 462.545C272.859 462.285 273.189 461.94 273.429 461.51C273.679 461.07 273.804 460.585 273.804 460.055C273.804 459.515 273.684 459.035 273.444 458.615C273.204 458.195 272.874 457.87 272.454 457.64C272.044 457.4 271.574 457.28 271.044 457.28C270.524 457.28 270.054 457.405 269.634 457.655C269.224 457.895 268.894 458.225 268.644 458.645C268.404 459.065 268.284 459.54 268.284 460.07C268.284 460.61 268.404 461.095 268.644 461.525C268.894 461.955 269.229 462.295 269.649 462.545C270.069 462.795 270.539 462.92 271.059 462.92ZM276.932 460.955C276.822 460.955 276.732 460.945 276.662 460.925C276.602 460.895 276.557 460.85 276.527 460.79C276.507 460.72 276.497 460.63 276.497 460.52V453.65C276.497 453.54 276.507 453.455 276.527 453.395C276.557 453.325 276.602 453.275 276.662 453.245C276.732 453.215 276.817 453.2 276.917 453.2C277.027 453.2 277.112 453.215 277.172 453.245C277.242 453.265 277.287 453.31 277.307 453.38C277.337 453.44 277.352 453.525 277.352 453.635V460.49C277.352 460.6 277.337 460.69 277.307 460.76C277.287 460.83 277.247 460.88 277.187 460.91C277.127 460.94 277.042 460.955 276.932 460.955ZM276.932 463.67C276.712 463.67 276.562 463.63 276.482 463.55C276.402 463.47 276.362 463.325 276.362 463.115C276.362 462.965 276.377 462.85 276.407 462.77C276.447 462.68 276.507 462.615 276.587 462.575C276.667 462.535 276.777 462.515 276.917 462.515C277.137 462.515 277.287 462.56 277.367 462.65C277.447 462.73 277.487 462.87 277.487 463.07C277.487 463.22 277.467 463.34 277.427 463.43C277.397 463.51 277.342 463.57 277.262 463.61C277.182 463.65 277.072 463.67 276.932 463.67Z" fill="#F5F5F5"/>
</g>
<g filter="url(#filter8_d_952_3)">
<path d="M159.638 84.3635H137.182V79.6394L145.246 71.4875C146.872 69.8176 148.176 68.426 149.157 67.3127C150.153 66.1848 150.871 65.1594 151.31 64.2366C151.764 63.3137 151.992 62.325 151.992 61.2703C151.992 59.9958 151.633 59.0437 150.915 58.4138C150.212 57.7693 149.267 57.447 148.08 57.447C146.835 57.447 145.627 57.7327 144.455 58.304C143.283 58.8752 142.06 59.6882 140.785 60.7429L137.094 56.3704C138.017 55.5793 138.991 54.8323 140.016 54.1292C141.056 53.426 142.258 52.8621 143.62 52.4373C144.997 51.9978 146.645 51.7781 148.564 51.7781C150.673 51.7781 152.482 52.1589 153.991 52.9207C155.514 53.6824 156.686 54.7224 157.507 56.0408C158.327 57.3445 158.737 58.824 158.737 60.4792C158.737 62.2517 158.386 63.8704 157.682 65.3352C156.979 66.8 155.954 68.2502 154.606 69.6858C153.273 71.1213 151.662 72.7107 149.772 74.4539L145.641 78.343V78.6506H159.638V84.3635ZM185.258 65.9504C185.258 67.7961 185.119 69.6272 184.841 71.4436C184.577 73.26 184.108 74.9739 183.434 76.5852C182.761 78.1819 181.816 79.6028 180.6 80.8479C179.384 82.0784 177.839 83.0452 175.964 83.7483C174.089 84.4514 171.818 84.803 169.152 84.803C168.522 84.803 167.783 84.7737 166.933 84.7151C166.083 84.6711 165.38 84.5979 164.824 84.4954V79.0461C165.41 79.1926 166.032 79.3098 166.691 79.3977C167.35 79.4709 168.017 79.5076 168.691 79.5076C171.371 79.5076 173.437 79.0828 174.887 78.2332C176.352 77.3835 177.377 76.2043 177.963 74.6956C178.564 73.1868 178.908 71.4436 178.996 69.4661H178.732C178.307 70.1692 177.802 70.8064 177.216 71.3777C176.645 71.9343 175.912 72.3811 175.019 72.718C174.125 73.0403 172.99 73.2014 171.613 73.2014C169.782 73.2014 168.185 72.8059 166.823 72.0149C165.475 71.2092 164.428 70.052 163.681 68.5432C162.949 67.0198 162.582 65.1814 162.582 63.0281C162.582 60.699 163.022 58.7068 163.901 57.0515C164.794 55.3816 166.061 54.0999 167.702 53.2063C169.343 52.3127 171.276 51.866 173.503 51.866C175.143 51.866 176.674 52.1516 178.095 52.7229C179.516 53.2795 180.761 54.1365 181.83 55.2937C182.914 56.4509 183.757 57.9158 184.357 59.6882C184.958 61.4607 185.258 63.5481 185.258 65.9504ZM173.635 57.3152C172.316 57.3152 171.24 57.7693 170.405 58.6775C169.57 59.5857 169.152 61.0066 169.152 62.9402C169.152 64.4929 169.511 65.7234 170.229 66.6316C170.947 67.5398 172.038 67.9939 173.503 67.9939C174.514 67.9939 175.392 67.7742 176.139 67.3347C176.887 66.8806 177.465 66.3167 177.875 65.6428C178.3 64.9543 178.513 64.2512 178.513 63.5334C178.513 62.7864 178.41 62.0466 178.205 61.3142C178 60.5818 177.692 59.9153 177.282 59.3147C176.872 58.7141 176.359 58.2307 175.744 57.8645C175.143 57.4983 174.44 57.3152 173.635 57.3152ZM190.136 82.6204L190.246 82.7888C190.158 83.1404 190.043 83.5188 189.902 83.9241C189.765 84.3293 189.614 84.7346 189.448 85.1399C189.286 85.5452 189.123 85.9309 188.957 86.2971H187.346C187.443 85.9016 187.538 85.4866 187.631 85.052C187.724 84.6174 187.809 84.1902 187.888 83.7703C187.971 83.3503 188.036 82.967 188.085 82.6204H190.136ZM201.884 76.1799C201.884 77.0002 201.822 77.814 201.699 78.6213C201.581 79.4286 201.373 80.1903 201.074 80.9065C200.774 81.6161 200.354 82.2476 199.814 82.801C199.273 83.3479 198.587 83.7776 197.753 84.0901C196.92 84.4026 195.911 84.5588 194.726 84.5588C194.446 84.5588 194.117 84.5458 193.74 84.5198C193.362 84.5002 193.049 84.4677 192.802 84.4221V82.0002C193.063 82.0653 193.339 82.1174 193.632 82.1565C193.925 82.189 194.221 82.2053 194.521 82.2053C195.712 82.2053 196.63 82.0165 197.275 81.6389C197.926 81.2613 198.382 80.7372 198.642 80.0667C198.909 79.3961 199.062 78.6213 199.101 77.7424H198.984C198.795 78.0549 198.57 78.3381 198.31 78.592C198.056 78.8394 197.73 79.038 197.333 79.1877C196.936 79.331 196.432 79.4026 195.82 79.4026C195.006 79.4026 194.296 79.2268 193.691 78.8752C193.092 78.5172 192.626 78.0028 192.294 77.3323C191.969 76.6552 191.806 75.8381 191.806 74.8811C191.806 73.8459 192.001 72.9605 192.392 72.2249C192.789 71.4827 193.352 70.913 194.081 70.5159C194.811 70.1187 195.67 69.9202 196.66 69.9202C197.389 69.9202 198.069 70.0471 198.701 70.301C199.332 70.5484 199.885 70.9293 200.361 71.4436C200.842 71.9579 201.217 72.609 201.484 73.3967C201.751 74.1845 201.884 75.1122 201.884 76.1799ZM196.718 72.342C196.132 72.342 195.654 72.5439 195.283 72.9475C194.911 73.3512 194.726 73.9827 194.726 74.842C194.726 75.5321 194.885 76.079 195.204 76.4827C195.523 76.8863 196.008 77.0881 196.66 77.0881C197.109 77.0881 197.499 76.9905 197.831 76.7952C198.163 76.5933 198.421 76.3427 198.603 76.0432C198.792 75.7372 198.886 75.4247 198.886 75.1057C198.886 74.7737 198.841 74.4449 198.749 74.1194C198.658 73.7939 198.521 73.4976 198.339 73.2307C198.157 72.9638 197.929 72.7489 197.656 72.5862C197.389 72.4234 197.076 72.342 196.718 72.342ZM213.31 77.2249C213.31 78.3772 213.219 79.4058 213.036 80.3108C212.861 81.2157 212.574 81.984 212.177 82.6155C211.786 83.247 211.272 83.7288 210.634 84.0608C209.996 84.3928 209.221 84.5588 208.31 84.5588C207.164 84.5588 206.223 84.2691 205.488 83.6897C204.752 83.1038 204.208 82.2639 203.857 81.1702C203.505 80.0699 203.329 78.7548 203.329 77.2249C203.329 75.6819 203.489 74.3635 203.808 73.2698C204.133 72.1695 204.661 71.3264 205.39 70.7405C206.119 70.1545 207.092 69.8616 208.31 69.8616C209.449 69.8616 210.387 70.1545 211.122 70.7405C211.865 71.3199 212.415 72.1597 212.773 73.26C213.131 74.3538 213.31 75.6754 213.31 77.2249ZM206.327 77.2249C206.327 78.3121 206.386 79.2203 206.503 79.9495C206.627 80.6721 206.832 81.2157 207.118 81.5803C207.405 81.9449 207.802 82.1272 208.31 82.1272C208.811 82.1272 209.205 81.9482 209.492 81.5901C209.785 81.2255 209.993 80.6819 210.117 79.9592C210.24 79.2301 210.302 78.3186 210.302 77.2249C210.302 76.1376 210.24 75.2294 210.117 74.5002C209.993 73.7711 209.785 73.2242 209.492 72.8596C209.205 72.4885 208.811 72.303 208.31 72.303C207.802 72.303 207.405 72.4885 207.118 72.8596C206.832 73.2242 206.627 73.7711 206.503 74.5002C206.386 75.2294 206.327 76.1376 206.327 77.2249Z" fill="#F5F5F5"/>
</g>
<g filter="url(#filter9_d_952_3)">
<path d="M65.4861 148.979L72.2361 162.929C72.5195 163.496 72.6611 163.921 72.6611 164.204C72.6611 164.804 72.1778 165.346 71.2111 165.829C70.6445 166.112 70.1945 166.254 69.8611 166.254C69.5445 166.254 69.2778 166.179 69.0611 166.029C68.8611 165.879 68.7111 165.721 68.6111 165.554C68.5278 165.387 68.4028 165.137 68.2361 164.804L66.9361 162.104H60.0111L58.7111 164.804C58.5445 165.137 58.4111 165.379 58.3111 165.529C58.2278 165.679 58.0778 165.837 57.8611 166.004C57.6611 166.154 57.3945 166.229 57.0611 166.229C56.7445 166.229 56.3028 166.087 55.7361 165.804C54.7695 165.337 54.2861 164.804 54.2861 164.204C54.2861 163.921 54.4278 163.496 54.7111 162.929L61.4611 148.954C61.6445 148.571 61.9195 148.262 62.2861 148.029C62.6695 147.796 63.0695 147.679 63.4861 147.679C64.3861 147.679 65.0528 148.112 65.4861 148.979ZM63.4611 154.979L61.8111 158.404H65.1361L63.4611 154.979ZM81.3523 152.829C83.019 152.829 84.4023 153.471 85.5023 154.754C86.619 156.021 87.1773 157.571 87.1773 159.404V163.804C87.1773 164.187 87.1607 164.479 87.1273 164.679C87.1107 164.862 87.044 165.071 86.9273 165.304C86.694 165.754 86.044 165.979 84.9773 165.979C83.794 165.979 83.1107 165.671 82.9273 165.054C82.8273 164.771 82.7773 164.346 82.7773 163.779V159.379C82.7773 158.696 82.5773 158.162 82.1773 157.779C81.794 157.396 81.269 157.204 80.6023 157.204C79.9523 157.204 79.419 157.404 79.0023 157.804C78.6023 158.204 78.4023 158.729 78.4023 159.379V163.804C78.4023 164.187 78.3857 164.479 78.3523 164.679C78.3357 164.862 78.2607 165.071 78.1273 165.304C77.9107 165.754 77.269 165.979 76.2023 165.979C75.1523 165.979 74.5107 165.754 74.2773 165.304C74.1607 165.054 74.0857 164.837 74.0523 164.654C74.0357 164.454 74.0273 164.162 74.0273 163.779V154.929C74.0273 154.562 74.0357 154.287 74.0523 154.104C74.0857 153.904 74.169 153.687 74.3023 153.454C74.5357 153.037 75.1773 152.829 76.2273 152.829C77.244 152.829 77.869 153.021 78.1023 153.404C78.269 153.687 78.3523 154.029 78.3523 154.429C78.419 154.312 78.569 154.146 78.8023 153.929C79.0357 153.712 79.2607 153.537 79.4773 153.404C80.044 153.021 80.669 152.829 81.3523 152.829ZM95.0385 165.954C93.3551 165.954 91.9551 165.321 90.8385 164.054C89.7385 162.771 89.1885 161.212 89.1885 159.379V155.004C89.1885 154.604 89.1968 154.312 89.2135 154.129C89.2468 153.946 89.3218 153.729 89.4385 153.479C89.6718 153.029 90.3218 152.804 91.3885 152.804C92.5551 152.804 93.2385 153.121 93.4385 153.754C93.5385 154.021 93.5885 154.446 93.5885 155.029V159.404C93.5885 160.087 93.7801 160.621 94.1635 161.004C94.5635 161.387 95.0885 161.579 95.7385 161.579C96.4051 161.579 96.9385 161.379 97.3385 160.979C97.7551 160.579 97.9635 160.054 97.9635 159.404V154.979C97.9635 154.596 97.9718 154.312 97.9885 154.129C98.0218 153.929 98.1051 153.704 98.2385 153.454C98.4551 153.021 99.0968 152.804 100.163 152.804C101.213 152.804 101.855 153.029 102.088 153.479C102.205 153.729 102.272 153.954 102.288 154.154C102.322 154.337 102.338 154.621 102.338 155.004V163.854C102.338 164.221 102.322 164.504 102.288 164.704C102.272 164.887 102.197 165.096 102.063 165.329C101.813 165.762 101.172 165.979 100.138 165.979C99.1218 165.979 98.4968 165.779 98.2635 165.379C98.0968 165.096 98.0135 164.754 98.0135 164.354C97.9468 164.471 97.7968 164.637 97.5635 164.854C97.3301 165.071 97.1051 165.254 96.8885 165.404C96.3218 165.771 95.7051 165.954 95.0385 165.954ZM112.9 154.229C113 153.296 113.658 152.829 114.875 152.829C115.525 152.829 116.008 152.879 116.325 152.979C116.641 153.079 116.858 153.254 116.975 153.504C117.108 153.754 117.183 153.979 117.2 154.179C117.233 154.362 117.25 154.646 117.25 155.029V163.779C117.25 164.162 117.233 164.454 117.2 164.654C117.183 164.837 117.116 165.054 117 165.304C116.766 165.737 116.191 165.954 115.275 165.954C114.375 165.954 113.766 165.846 113.45 165.629C113.15 165.396 112.975 165.062 112.925 164.629C112.308 165.512 111.275 165.954 109.825 165.954C108.391 165.954 107.058 165.296 105.825 163.979C104.591 162.662 103.975 161.137 103.975 159.404C103.975 157.654 104.591 156.129 105.825 154.829C107.075 153.512 108.441 152.854 109.925 152.854C110.491 152.854 111.008 152.954 111.475 153.154C111.941 153.354 112.266 153.546 112.45 153.729C112.633 153.896 112.783 154.062 112.9 154.229ZM108.35 159.429C108.35 159.979 108.566 160.479 109 160.929C109.433 161.362 109.958 161.579 110.575 161.579C111.191 161.579 111.7 161.354 112.1 160.904C112.516 160.454 112.725 159.962 112.725 159.429C112.725 158.879 112.525 158.371 112.125 157.904C111.741 157.437 111.216 157.204 110.55 157.204C109.9 157.204 109.366 157.437 108.95 157.904C108.55 158.371 108.35 158.879 108.35 159.429ZM119.242 148.829C119.242 148.446 119.251 148.162 119.267 147.979C119.301 147.779 119.376 147.554 119.492 147.304C119.726 146.854 120.376 146.629 121.442 146.629C122.459 146.629 123.092 146.854 123.342 147.304C123.476 147.554 123.551 147.779 123.567 147.979C123.601 148.179 123.617 148.471 123.617 148.854V160.429C123.617 161.029 123.667 161.412 123.767 161.579C123.867 161.729 124.084 161.804 124.417 161.804C124.767 161.804 125.001 161.821 125.117 161.854C125.234 161.871 125.376 161.937 125.542 162.054C125.876 162.271 126.042 162.862 126.042 163.829C126.042 164.879 125.876 165.521 125.542 165.754C125.109 166.054 124.076 166.104 122.442 165.904C121.159 165.737 120.326 165.312 119.942 164.629C119.476 163.812 119.242 162.512 119.242 160.729V148.829Z" fill="#F5F5F5"/>
</g>
<g filter="url(#filter10_d_952_3)">
<path d="M116.865 86.267C116.713 86.267 116.597 86.243 116.517 86.195C116.437 86.155 116.385 86.095 116.361 86.015C116.345 85.927 116.337 85.827 116.337 85.715V78.419C116.337 78.315 116.349 78.227 116.373 78.155C116.405 78.075 116.457 78.011 116.529 77.963C116.609 77.915 116.725 77.891 116.877 77.891H119.529C119.921 77.891 120.277 77.951 120.597 78.071C120.925 78.183 121.209 78.351 121.449 78.575C121.689 78.799 121.873 79.083 122.001 79.427C122.137 79.763 122.205 80.155 122.205 80.603C122.205 80.883 122.161 81.175 122.073 81.479C121.985 81.775 121.849 82.055 121.665 82.319C121.489 82.583 121.261 82.803 120.981 82.979C120.701 83.155 120.361 83.255 119.961 83.279H117.417V85.727C117.417 85.839 117.401 85.935 117.369 86.015C117.345 86.095 117.293 86.155 117.213 86.195C117.141 86.243 117.025 86.267 116.865 86.267ZM122.013 86.135C121.845 86.247 121.701 86.283 121.581 86.243C121.469 86.203 121.361 86.107 121.257 85.955L119.337 82.883L120.525 82.703L122.181 85.343C122.261 85.471 122.309 85.579 122.325 85.667C122.349 85.755 122.333 85.835 122.277 85.907C122.229 85.979 122.141 86.055 122.013 86.135ZM117.417 82.223H119.793C119.977 82.223 120.149 82.191 120.309 82.127C120.469 82.055 120.609 81.951 120.729 81.815C120.849 81.679 120.945 81.511 121.017 81.311C121.089 81.111 121.125 80.871 121.125 80.591C121.125 80.247 121.061 79.955 120.933 79.715C120.813 79.475 120.633 79.295 120.393 79.175C120.153 79.047 119.857 78.983 119.505 78.983H117.417V82.223ZM127.858 83.711C127.858 83.975 127.814 84.219 127.726 84.443C127.638 84.667 127.51 84.863 127.342 85.031C127.174 85.191 126.974 85.323 126.742 85.427C126.51 85.531 126.25 85.603 125.962 85.643V86.543C125.962 86.647 125.95 86.735 125.926 86.807C125.902 86.887 125.858 86.943 125.794 86.975C125.73 87.015 125.634 87.035 125.506 87.035C125.378 87.035 125.282 87.015 125.218 86.975C125.154 86.935 125.11 86.875 125.086 86.795C125.07 86.723 125.062 86.635 125.062 86.531V85.631C124.838 85.599 124.618 85.539 124.402 85.451C124.194 85.355 124.006 85.239 123.838 85.103C123.678 84.967 123.542 84.819 123.43 84.659C123.342 84.515 123.294 84.391 123.286 84.287C123.278 84.183 123.35 84.067 123.502 83.939C123.622 83.851 123.726 83.807 123.814 83.807C123.902 83.807 123.986 83.839 124.066 83.903C124.146 83.967 124.218 84.047 124.282 84.143C124.41 84.335 124.578 84.483 124.786 84.587C125.002 84.691 125.234 84.743 125.482 84.743C125.778 84.743 126.03 84.703 126.238 84.623C126.446 84.543 126.602 84.431 126.706 84.287C126.818 84.135 126.874 83.951 126.874 83.735C126.874 83.487 126.794 83.291 126.634 83.147C126.474 83.003 126.262 82.883 125.998 82.787C125.742 82.683 125.47 82.579 125.182 82.475C124.966 82.395 124.754 82.307 124.546 82.211C124.338 82.115 124.15 81.999 123.982 81.863C123.814 81.719 123.682 81.547 123.586 81.347C123.49 81.147 123.442 80.899 123.442 80.603C123.442 80.363 123.478 80.143 123.55 79.943C123.622 79.743 123.73 79.567 123.874 79.415C124.018 79.263 124.19 79.139 124.39 79.043C124.59 78.939 124.814 78.871 125.062 78.839V77.999C125.062 77.895 125.07 77.807 125.086 77.735C125.11 77.655 125.154 77.595 125.218 77.555C125.282 77.515 125.378 77.495 125.506 77.495C125.634 77.495 125.73 77.515 125.794 77.555C125.858 77.595 125.902 77.651 125.926 77.723C125.95 77.795 125.962 77.883 125.962 77.987V78.827C126.266 78.867 126.53 78.955 126.754 79.091C126.986 79.219 127.174 79.355 127.318 79.499C127.446 79.619 127.514 79.727 127.522 79.823C127.53 79.911 127.478 80.023 127.366 80.159C127.302 80.247 127.23 80.311 127.15 80.351C127.078 80.383 127.002 80.391 126.922 80.375C126.85 80.351 126.77 80.299 126.682 80.219C126.594 80.131 126.486 80.051 126.358 79.979C126.23 79.907 126.094 79.851 125.95 79.811C125.806 79.763 125.654 79.739 125.494 79.739C125.326 79.739 125.174 79.759 125.038 79.799C124.902 79.839 124.786 79.899 124.69 79.979C124.602 80.051 124.53 80.143 124.474 80.255C124.426 80.359 124.402 80.479 124.402 80.615C124.402 80.823 124.47 80.991 124.606 81.119C124.75 81.247 124.934 81.355 125.158 81.443C125.382 81.531 125.622 81.615 125.878 81.695C126.11 81.775 126.342 81.863 126.574 81.959C126.806 82.055 127.018 82.175 127.21 82.319C127.41 82.463 127.566 82.647 127.678 82.871C127.798 83.095 127.858 83.375 127.858 83.711Z" fill="#0BD583"/>
</g>
<defs>
<filter id="filter0_d_952_3" x="18.4028" y="53.4275" width="303.597" height="381.803" filterUnits="userSpaceOnUse" color-interpolation-filters="sRGB">
<feFlood flood-opacity="0" result="BackgroundImageFix"/>
<feColorMatrix in="SourceAlpha" type="matrix" values="0 0 0 0 0 0 0 0 0 0 0 0 0 0 0 0 0 0 127 0" result="hardAlpha"/>
<feOffset dx="4" dy="4"/>
<feGaussianBlur stdDeviation="5"/>
<feComposite in2="hardAlpha" operator="out"/>
<feColorMatrix type="matrix" values="0 0 0 0 0 0 0 0 0 0 0 0 0 0 0 0 0 0 0.3 0"/>
<feBlend mode="normal" in2="BackgroundImageFix" result="effect1_dropShadow_952_3"/>
<feBlend mode="normal" in="SourceGraphic" in2="effect1_dropShadow_952_3" result="shape"/>
</filter>
<filter id="filter1_d_952_3" x="40.8457" y="187.767" width="252.59" height="354.219" filterUnits="userSpaceOnUse" color-interpolation-filters="sRGB">
<feFlood flood-opacity="0" result="BackgroundImageFix"/>
<feColorMatrix in="SourceAlpha" type="matrix" values="0 0 0 0 0 0 0 0 0 0 0 0 0 0 0 0 0 0 127 0" result="hardAlpha"/>
<feOffset dx="4" dy="4"/>
<feGaussianBlur stdDeviation="5"/>
<feComposite in2="hardAlpha" operator="out"/>
<feColorMatrix type="matrix" values="0 0 0 0 0 0 0 0 0 0 0 0 0 0 0 0 0 0 0.3 0"/>
<feBlend mode="normal" in2="BackgroundImageFix" result="effect1_dropShadow_952_3"/>
<feBlend mode="normal" in="SourceGraphic" in2="effect1_dropShadow_952_3" result="shape"/>
</filter>
<filter id="filter2_d_952_3" x="97.8457" y="1.86841" width="138.752" height="138.788" filterUnits="userSpaceOnUse" color-interpolation-filters="sRGB">
<feFlood flood-opacity="0" result="BackgroundImageFix"/>
<feColorMatrix in="SourceAlpha" type="matrix" values="0 0 0 0 0 0 0 0 0 0 0 0 0 0 0 0 0 0 127 0" result="hardAlpha"/>
<feOffset dy="4"/>
<feGaussianBlur stdDeviation="2"/>
<feComposite in2="hardAlpha" operator="out"/>
<feColorMatrix type="matrix" values="0 0 0 0 0 0 0 0 0 0 0 0 0 0 0 0 0 0 0.25 0"/>
<feBlend mode="normal" in2="BackgroundImageFix" result="effect1_dropShadow_952_3"/>
<feBlend mode="normal" in="SourceGraphic" in2="effect1_dropShadow_952_3" result="shape"/>
</filter>
<filter id="filter3_d_952_3" x="0.000488281" y="141.878" width="234.47" height="42.592" filterUnits="userSpaceOnUse" color-interpolation-filters="sRGB">
<feFlood flood-opacity="0" result="BackgroundImageFix"/>
<feColorMatrix in="SourceAlpha" type="matrix" values="0 0 0 0 0 0 0 0 0 0 0 0 0 0 0 0 0 0 127 0" result="hardAlpha"/>
<feOffset dy="4"/>
<feGaussianBlur stdDeviation="2"/>
<feComposite in2="hardAlpha" operator="out"/>
<feColorMatrix type="matrix" values="0 0 0 0 0 0 0 0 0 0 0 0 0 0 0 0 0 0 0.25 0"/>
<feBlend mode="normal" in2="BackgroundImageFix" result="effect1_dropShadow_952_3"/>
<feBlend mode="normal" in="SourceGraphic" in2="effect1_dropShadow_952_3" result="shape"/>
</filter>
<filter id="filter4_d_952_3" x="212.188" y="443.598" width="87.5703" height="36.8267" filterUnits="userSpaceOnUse" color-interpolation-filters="sRGB">
<feFlood flood-opacity="0" result="BackgroundImageFix"/>
<feColorMatrix in="SourceAlpha" type="matrix" values="0 0 0 0 0 0 0 0 0 0 0 0 0 0 0 0 0 0 127 0" result="hardAlpha"/>
<feOffset dy="4"/>
<feGaussianBlur stdDeviation="2"/>
<feComposite in2="hardAlpha" operator="out"/>
<feColorMatrix type="matrix" values="0 0 0 0 0 0 0 0 0 0 0 0 0 0 0 0 0 0 0.25 0"/>
<feBlend mode="normal" in2="BackgroundImageFix" result="effect1_dropShadow_952_3"/>
<feBlend mode="normal" in="SourceGraphic" in2="effect1_dropShadow_952_3" result="shape"/>
</filter>
<filter id="filter5_d_952_3" x="145.111" y="91.3071" width="48.3652" height="14.3992" filterUnits="userSpaceOnUse" color-interpolation-filters="sRGB">
<feFlood flood-opacity="0" result="BackgroundImageFix"/>
<feColorMatrix in="SourceAlpha" type="matrix" values="0 0 0 0 0 0 0 0 0 0 0 0 0 0 0 0 0 0 127 0" result="hardAlpha"/>
<feOffset dx="2" dy="2"/>
<feGaussianBlur stdDeviation="2"/>
<feComposite in2="hardAlpha" operator="out"/>
<feColorMatrix type="matrix" values="0 0 0 0 0 0 0 0 0 0 0 0 0 0 0 0 0 0 0.25 0"/>
<feBlend mode="normal" in2="BackgroundImageFix" result="effect1_dropShadow_952_3"/>
<feBlend mode="normal" in="SourceGraphic" in2="effect1_dropShadow_952_3" result="shape"/>
</filter>
<filter id="filter6_d_952_3" x="139.749" y="150.856" width="47.3765" height="20.3989" filterUnits="userSpaceOnUse" color-interpolation-filters="sRGB">
<feFlood flood-opacity="0" result="BackgroundImageFix"/>
<feColorMatrix in="SourceAlpha" type="matrix" values="0 0 0 0 0 0 0 0 0 0 0 0 0 0 0 0 0 0 127 0" result="hardAlpha"/>
<feOffset dx="2" dy="2"/>
<feGaussianBlur stdDeviation="2"/>
<feComposite in2="hardAlpha" operator="out"/>
<feColorMatrix type="matrix" values="0 0 0 0 0 0 0 0 0 0 0 0 0 0 0 0 0 0 0.25 0"/>
<feBlend mode="normal" in2="BackgroundImageFix" result="effect1_dropShadow_952_3"/>
<feBlend mode="normal" in="SourceGraphic" in2="effect1_dropShadow_952_3" result="shape"/>
</filter>
<filter id="filter7_d_952_3" x="231.485" y="451.155" width="52.0024" height="18.5901" filterUnits="userSpaceOnUse" color-interpolation-filters="sRGB">
<feFlood flood-opacity="0" result="BackgroundImageFix"/>
<feColorMatrix in="SourceAlpha" type="matrix" values="0 0 0 0 0 0 0 0 0 0 0 0 0 0 0 0 0 0 127 0" result="hardAlpha"/>
<feOffset dx="2" dy="2"/>
<feGaussianBlur stdDeviation="2"/>
<feComposite in2="hardAlpha" operator="out"/>
<feColorMatrix type="matrix" values="0 0 0 0 0 0 0 0 0 0 0 0 0 0 0 0 0 0 0.25 0"/>
<feBlend mode="normal" in2="BackgroundImageFix" result="effect1_dropShadow_952_3"/>
<feBlend mode="normal" in="SourceGraphic" in2="effect1_dropShadow_952_3" result="shape"/>
</filter>
<filter id="filter8_d_952_3" x="133.094" y="51.7781" width="84.2158" height="42.519" filterUnits="userSpaceOnUse" color-interpolation-filters="sRGB">
<feFlood flood-opacity="0" result="BackgroundImageFix"/>
<feColorMatrix in="SourceAlpha" type="matrix" values="0 0 0 0 0 0 0 0 0 0 0 0 0 0 0 0 0 0 127 0" result="hardAlpha"/>
<feOffset dy="4"/>
<feGaussianBlur stdDeviation="2"/>
<feComposite in2="hardAlpha" operator="out"/>
<feColorMatrix type="matrix" values="0 0 0 0 0 0 0 0 0 0 0 0 0 0 0 0 0 0 0.25 0"/>
<feBlend mode="normal" in2="BackgroundImageFix" result="effect1_dropShadow_952_3"/>
<feBlend mode="normal" in="SourceGraphic" in2="effect1_dropShadow_952_3" result="shape"/>
</filter>
<filter id="filter9_d_952_3" x="52.2861" y="144.629" width="79.7559" height="27.625" filterUnits="userSpaceOnUse" color-interpolation-filters="sRGB">
<feFlood flood-opacity="0" result="BackgroundImageFix"/>
<feColorMatrix in="SourceAlpha" type="matrix" values="0 0 0 0 0 0 0 0 0 0 0 0 0 0 0 0 0 0 127 0" result="hardAlpha"/>
<feOffset dx="2" dy="2"/>
<feGaussianBlur stdDeviation="2"/>
<feComposite in2="hardAlpha" operator="out"/>
<feColorMatrix type="matrix" values="0 0 0 0 0 0 0 0 0 0 0 0 0 0 0 0 0 0 0.25 0"/>
<feBlend mode="normal" in2="BackgroundImageFix" result="effect1_dropShadow_952_3"/>
<feBlend mode="normal" in="SourceGraphic" in2="effect1_dropShadow_952_3" result="shape"/>
</filter>
<filter id="filter10_d_952_3" x="112.337" y="77.4949" width="19.52" height="17.54" filterUnits="userSpaceOnUse" color-interpolation-filters="sRGB">
<feFlood flood-opacity="0" result="BackgroundImageFix"/>
<feColorMatrix in="SourceAlpha" type="matrix" values="0 0 0 0 0 0 0 0 0 0 0 0 0 0 0 0 0 0 127 0" result="hardAlpha"/>
<feOffset dy="4"/>
<feGaussianBlur stdDeviation="2"/>
<feComposite in2="hardAlpha" operator="out"/>
<feColorMatrix type="matrix" values="0 0 0 0 0 0 0 0 0 0 0 0 0 0 0 0 0 0 0.25 0"/>
<feBlend mode="normal" in2="BackgroundImageFix" result="effect1_dropShadow_952_3"/>
<feBlend mode="normal" in="SourceGraphic" in2="effect1_dropShadow_952_3" result="shape"/>
</filter>
<linearGradient id="paint0_linear_952_3" x1="36.5748" y1="193.667" x2="7.62879" y2="172.269" gradientUnits="userSpaceOnUse">
<stop stop-color="#05D87E"/>
<stop offset="0.645833" stop-color="#2D9092"/>
</linearGradient>
<linearGradient id="paint1_linear_952_3" x1="104.134" y1="20.6591" x2="195.341" y2="127.288" gradientUnits="userSpaceOnUse">
<stop stop-color="#38A3A5"/>
<stop offset="1" stop-color="#03DA7D"/>
</linearGradient>
<linearGradient id="paint2_linear_952_3" x1="117.235" y1="141.878" x2="210.292" y2="166.308" gradientUnits="userSpaceOnUse">
<stop stop-color="#38A3A5"/>
<stop offset="1" stop-color="#0BD583"/>
</linearGradient>
<linearGradient id="paint3_linear_952_3" x1="255.974" y1="472.425" x2="221.447" y2="468.603" gradientUnits="userSpaceOnUse">
<stop stop-color="#38A3A5"/>
<stop offset="1" stop-color="#0BD583"/>
</linearGradient>
</defs>
</svg>
